<svg version="1.1" id="Layer_1" xmlns="http://www.w3.org/2000/svg" xmlns:xlink="http://www.w3.org/1999/xlink" x="0px" y="0px"
	 width="100%" viewBox="0 0 336 364" enable-background="new 0 0 336 364" xml:space="preserve">
<path fill="#CEE39C" opacity="1.000000" stroke="none" 
	d="
M195.000000,365.000000 
	C176.645767,365.000000 158.291550,365.000000 139.211777,364.695923 
	C135.370956,363.944641 132.265793,363.404053 129.138779,363.064972 
	C105.422966,360.493256 82.152351,356.079071 59.668041,347.758057 
	C34.804546,338.556549 16.406410,322.752441 6.447885,297.794342 
	C4.730494,293.490234 2.820842,289.262848 1.000000,285.000000 
	C1.000000,217.312439 1.000000,149.624878 1.260267,81.227180 
	C3.008642,76.814369 4.494017,73.110588 5.985311,69.409195 
	C14.481559,48.321484 28.301352,32.369411 49.325146,22.707636 
	C71.836006,12.362460 95.612839,7.256655 119.936600,4.012974 
	C127.949165,2.944461 135.978394,2.000768 144.000000,1.000000 
	C160.687561,1.000000 177.375122,1.000000 194.823761,1.282718 
	C199.536865,2.019591 203.481842,2.550328 207.442078,2.915434 
	C232.554459,5.230604 257.131989,9.953836 280.718414,19.139555 
	C303.424622,27.982450 320.705750,42.625416 330.262695,65.533676 
	C332.427551,70.722870 334.750061,75.846298 337.000000,81.000000 
	C337.000000,148.687561 337.000000,216.375122 336.729584,284.761597 
	C336.037476,286.360657 335.505157,287.226074 335.210205,288.165985 
	C325.516571,319.057892 305.154999,339.102448 274.412720,349.258667 
	C252.155533,356.611725 229.459320,361.250793 206.148224,363.213928 
	C202.408524,363.528839 198.714920,364.390869 195.000000,365.000000 
M95.259163,145.180206 
	C88.226822,148.051743 81.116325,150.748505 74.185860,153.847870 
	C68.205589,156.522308 62.430199,159.654846 56.564228,162.584869 
	C56.610481,163.093445 56.656734,163.602020 56.702984,164.110596 
	C60.994499,166.086151 65.286011,168.061722 70.310326,170.374619 
	C66.141388,179.103683 62.071186,187.605774 58.019566,196.116714 
	C55.428768,201.559006 52.652275,207.072235 54.488514,213.312714 
	C57.492085,223.520401 60.327160,233.823380 64.208313,243.703140 
	C65.625839,247.311554 69.280113,251.244827 72.842400,252.613556 
	C97.628098,262.136902 123.679665,264.014893 149.936142,263.784760 
	C151.382050,263.772095 153.926407,261.122528 154.057159,259.542877 
	C154.989426,248.279739 155.560211,236.978958 155.841019,225.680099 
	C155.873520,224.372543 153.573090,222.085922 152.091354,221.840500 
	C148.183838,221.193298 144.132385,221.374710 140.136887,221.306320 
	C125.811188,221.061020 111.481277,220.961960 97.162811,220.501526 
	C95.030640,220.432953 91.909187,219.274109 91.056709,217.661896 
	C89.066002,213.897064 94.057899,202.061722 97.585434,200.026031 
	C97.585434,198.500137 97.585434,197.139465 97.585434,195.778778 
	C98.942253,195.947678 100.371758,195.901016 101.641151,196.329132 
	C104.515411,197.298477 107.310707,198.501938 110.138123,199.610199 
	C110.458160,198.897293 110.778206,198.184372 111.098251,197.471466 
	C107.410255,195.573212 103.722260,193.674957 100.069473,191.794830 
	C103.350281,183.930008 103.341370,183.977615 110.974724,185.407059 
	C113.522911,185.884262 116.129509,186.049500 118.708229,186.357208 
	C119.423424,179.733383 112.363564,175.164536 115.050201,168.803619 
	C113.368896,166.926300 111.524727,164.867142 109.680565,162.807983 
	C110.012230,162.525879 110.343887,162.243774 110.675552,161.961670 
	C112.454453,162.301819 114.233360,162.641968 116.012268,162.982132 
	C116.485443,162.298233 116.958611,161.614334 117.431786,160.930435 
	C116.384811,160.511734 115.365273,159.996201 114.286293,159.690384 
	C108.341850,158.005585 105.081772,153.828125 102.798164,148.311829 
	C102.197830,146.861679 99.683235,146.203979 97.338203,145.217972 
	C96.878937,145.333572 96.419678,145.449158 95.259163,145.180206 
M249.632111,111.210281 
	C247.840546,111.944077 246.048981,112.677872 244.494812,113.314430 
	C243.818710,112.734009 243.459778,112.569496 243.338577,112.298622 
	C242.523529,110.476784 241.779099,108.623497 240.974945,106.796608 
	C232.747559,88.105423 221.772537,72.171349 201.040039,65.436325 
	C180.937195,58.905857 160.340729,57.110722 139.379898,58.118710 
	C129.379196,58.599636 121.114922,62.559639 116.209946,71.455070 
	C107.295326,87.622200 98.874977,104.061310 90.165894,120.342804 
	C88.297081,123.836533 89.381622,125.919418 92.719917,127.422752 
	C101.966812,131.586853 111.237160,135.703079 120.409721,140.026031 
	C124.133545,141.781021 126.247940,140.967880 128.457275,137.420715 
	C137.523315,122.864792 146.706055,108.372787 156.225479,94.110649 
	C164.538483,81.656013 167.501587,81.473190 178.692230,92.062096 
	C181.753204,94.958481 186.819946,97.152931 184.113937,103.035408 
	C190.012955,103.134140 190.945862,104.233063 190.233414,109.156532 
	C197.343475,112.242889 197.883575,119.338394 201.169281,125.013779 
	C195.047333,128.939407 189.365234,132.582993 182.249359,137.145950 
	C193.155167,141.281616 202.684052,144.895111 212.163361,148.489822 
	C211.760849,149.625015 211.408554,150.618607 211.439148,150.532349 
	C218.466324,151.905243 225.275253,153.102798 232.018356,154.597382 
	C236.887131,155.676529 241.742004,156.930389 246.467880,158.510651 
	C251.154160,160.077698 253.713638,158.539413 254.990372,153.978180 
	C258.038940,143.087036 261.280762,132.248199 264.186676,121.319672 
	C265.607452,115.976440 266.452667,110.480164 267.863647,103.554840 
	C260.996033,106.442879 255.666840,108.683983 249.632111,111.210281 
M280.232330,172.244995 
	C278.588928,169.949829 280.232208,164.522079 274.681366,165.953705 
	C261.365814,169.387955 248.103577,173.029053 233.808716,176.857468 
	C240.970459,191.313766 247.614243,204.724518 254.723099,219.074081 
	C237.964417,221.159195 222.298294,223.181610 206.604416,224.958786 
	C204.846252,225.157883 202.930725,223.967117 200.557526,223.263565 
	C200.399765,223.650269 199.871750,224.944534 199.343719,226.238785 
	C198.791840,225.878372 198.239960,225.517975 197.688065,225.157562 
	C197.075348,222.116241 196.552048,219.053452 195.828003,216.038879 
	C194.850143,211.967422 192.909149,211.047653 189.995163,214.035675 
	C186.726868,217.386993 182.050949,218.553024 179.400940,223.283340 
	C176.407730,228.626282 171.088531,232.720612 166.557190,237.127991 
	C163.602280,240.002045 163.229401,242.342621 166.353638,245.389145 
	C175.164200,253.980652 183.674622,262.883575 192.597321,271.354095 
	C194.961731,273.598663 198.387146,274.725616 201.325394,276.365723 
	C202.161621,273.286591 203.416718,270.247070 203.712479,267.116882 
	C203.990402,264.175415 204.960144,263.138092 207.891083,262.978943 
	C213.870438,262.654327 219.877792,261.217285 225.781967,261.611328 
	C231.264709,261.977234 236.371399,260.006134 241.698074,260.399597 
	C243.914948,260.563354 246.085083,261.359894 248.112961,261.830719 
	C249.597397,261.049438 251.162018,259.622223 252.862564,259.436005 
	C260.019775,258.652222 265.623230,254.981781 269.511871,249.446198 
	C276.571960,239.396057 283.075897,228.943420 289.534515,218.487396 
	C292.893585,213.049271 292.700836,207.227661 290.427826,201.210236 
	C286.903778,191.880798 283.792969,182.395279 280.232330,172.244995 
M84.658501,303.131287 
	C85.773003,302.210724 86.887497,301.290131 88.469383,299.983490 
	C82.945885,298.597351 70.509300,303.759399 67.154999,308.652832 
	C73.997124,309.782013 78.732567,305.657013 84.658501,303.131287 
M173.700043,298.311584 
	C168.276474,301.471954 161.281418,302.419037 158.400589,309.285736 
	C165.287460,308.792908 170.526215,305.039978 175.434280,300.719269 
	C175.650330,300.529053 174.777084,299.101562 173.700043,298.311584 
M141.078262,306.628632 
	C140.419891,307.824493 139.761536,309.020325 139.103165,310.216187 
	C139.509109,310.621704 139.915039,311.027222 140.320984,311.432739 
	C145.063065,308.827148 149.857529,306.309448 154.502029,303.540192 
	C155.406311,303.001007 155.727219,301.483398 156.317215,300.417114 
	C155.002090,300.218414 153.389816,299.434570 152.424561,299.924835 
	C148.730484,301.800781 145.244400,304.086334 141.078262,306.628632 
M96.611488,307.183563 
	C100.100502,305.071472 103.589508,302.959381 107.078514,300.847290 
	C102.519051,298.956024 89.253120,305.444733 87.142113,310.511078 
	C90.071526,309.513794 93.000931,308.516510 96.611488,307.183563 
M126.548195,304.072113 
	C124.913864,305.441711 123.279541,306.811340 121.368843,308.412567 
	C122.634964,309.298035 123.206619,309.892700 123.382545,309.792480 
	C128.318726,306.981384 133.234268,304.131592 138.073578,301.158569 
	C138.393402,300.962067 138.290680,299.195496 138.025513,299.093597 
	C137.211700,298.780975 136.046799,298.581390 135.333603,298.949127 
	C132.538757,300.390289 129.865021,302.066284 126.548195,304.072113 
M209.810440,297.704895 
	C203.005768,298.669006 195.056808,305.912231 196.031082,311.742554 
	C201.198792,307.235931 205.887924,303.154144 210.545380,299.036560 
	C210.647827,298.945953 210.389038,298.446716 209.810440,297.704895 
M119.261429,303.775909 
	C120.548721,302.700714 121.836014,301.625519 123.519867,300.219086 
	C118.716225,298.928650 107.566414,304.496124 104.163078,309.644958 
	C110.360634,310.508240 113.930748,305.695862 119.261429,303.775909 
M192.912399,302.380554 
	C193.556488,301.194702 194.200592,300.008850 194.844681,298.822968 
	C194.382660,298.339447 193.920639,297.855927 193.458633,297.372406 
	C188.243958,300.971222 183.029282,304.570038 177.814621,308.168854 
	C178.143280,308.750214 178.471924,309.331573 178.800583,309.912933 
	C184.355392,309.870331 188.155579,305.872162 192.912399,302.380554 
M211.082367,306.523621 
	C211.016312,307.400085 210.950241,308.276581 210.884171,309.153076 
	C212.098480,309.098785 213.587326,309.477722 214.478287,308.913116 
	C217.845688,306.779297 221.079498,304.416779 224.224991,301.962555 
	C225.077789,301.297180 225.444092,300.008270 226.210358,298.705078 
	C221.268188,298.370544 220.173660,298.952026 211.082367,306.523621 
M238.205170,303.663391 
	C239.485214,302.211090 240.765259,300.758820 242.478485,298.815063 
	C236.541077,298.251556 228.667175,304.213867 227.211456,310.035828 
	C232.033005,309.993835 234.576111,306.475800 238.205170,303.663391 
M251.069748,304.550171 
	C253.375168,302.852417 255.680588,301.154663 257.985992,299.456909 
	C257.613647,298.907104 257.241272,298.357300 256.868896,297.807465 
	C251.103500,299.128082 246.367874,302.567322 241.775269,306.195709 
	C241.322510,306.553406 241.318863,308.264282 241.762314,308.756744 
	C242.230560,309.276733 243.717560,309.498688 244.352051,309.136658 
	C246.492691,307.915344 248.452408,306.376923 251.069748,304.550171 
M268.026428,298.761139 
	C264.827240,301.105225 261.561615,303.367157 258.480713,305.857574 
	C257.804626,306.404083 257.785553,307.763336 257.463928,308.748352 
	C258.503571,308.810425 259.864288,309.326019 260.527618,308.856476 
	C263.485199,306.762939 266.352570,304.503113 268.979980,302.015503 
	C269.494171,301.528656 268.799438,299.764923 268.026428,298.761139 
M277.587006,302.029724 
	C275.389954,303.909210 273.192902,305.788696 270.023376,308.500122 
	C276.485657,308.564453 282.400299,304.160187 284.194519,298.626678 
	C281.817810,299.806488 279.992737,300.712463 277.587006,302.029724 
z"/>
<path fill="#FEFFFE" opacity="1.000000" stroke="none" 
	d="
M337.000000,80.531342 
	C334.750061,75.846298 332.427551,70.722870 330.262695,65.533676 
	C320.705750,42.625416 303.424622,27.982450 280.718414,19.139555 
	C257.131989,9.953836 232.554459,5.230604 207.442078,2.915434 
	C203.481842,2.550328 199.536865,2.019591 195.292419,1.282718 
	C242.239883,1.000000 289.479767,1.000000 337.000000,1.000000 
	C337.000000,27.353565 337.000000,53.708122 337.000000,80.531342 
z"/>
<path fill="#FEFFFE" opacity="1.000000" stroke="none" 
	d="
M143.531342,1.000000 
	C135.978394,2.000768 127.949165,2.944461 119.936600,4.012974 
	C95.612839,7.256655 71.836006,12.362460 49.325146,22.707636 
	C28.301352,32.369411 14.481559,48.321484 5.985311,69.409195 
	C4.494017,73.110588 3.008642,76.814369 1.260267,80.758522 
	C1.000000,54.385742 1.000000,27.771488 1.000000,1.000000 
	C48.354118,1.000000 95.708397,1.000000 143.531342,1.000000 
z"/>
<path fill="#FEFFFE" opacity="1.000000" stroke="none" 
	d="
M1.000000,285.468658 
	C2.820842,289.262848 4.730494,293.490234 6.447885,297.794342 
	C16.406410,322.752441 34.804546,338.556549 59.668041,347.758057 
	C82.152351,356.079071 105.422966,360.493256 129.138779,363.064972 
	C132.265793,363.404053 135.370956,363.944641 138.743118,364.695923 
	C93.092484,365.000000 47.184975,365.000000 1.000000,365.000000 
	C1.000000,338.646423 1.000000,312.291870 1.000000,285.468658 
z"/>
<path fill="#FEFFFE" opacity="1.000000" stroke="none" 
	d="
M195.468658,365.000000 
	C198.714920,364.390869 202.408524,363.528839 206.148224,363.213928 
	C229.459320,361.250793 252.155533,356.611725 274.412720,349.258667 
	C305.154999,339.102448 325.516571,319.057892 335.210205,288.165985 
	C335.505157,287.226074 336.037476,286.360657 336.729584,285.230225 
	C337.000000,311.614014 337.000000,338.228027 337.000000,365.000000 
	C289.979218,365.000000 242.958267,365.000000 195.468658,365.000000 
z"/>
<path fill="#0A592D" opacity="1.000000" stroke="none" 
	d="
M249.984879,111.067680 
	C255.666840,108.683983 260.996033,106.442879 267.863647,103.554840 
	C266.452667,110.480164 265.607452,115.976440 264.186676,121.319672 
	C261.280762,132.248199 258.038940,143.087036 254.990372,153.978180 
	C253.713638,158.539413 251.154160,160.077698 246.467880,158.510651 
	C241.742004,156.930389 236.887131,155.676529 232.018356,154.597382 
	C225.275253,153.102798 218.466324,151.905243 211.439148,150.532349 
	C211.408554,150.618607 211.760849,149.625015 212.163361,148.489822 
	C202.684052,144.895111 193.155167,141.281616 182.249359,137.145950 
	C189.365234,132.582993 195.047333,128.939407 201.169281,125.013779 
	C197.883575,119.338394 197.343475,112.242889 190.233414,109.156532 
	C190.945862,104.233063 190.012955,103.134140 184.113937,103.035408 
	C186.819946,97.152931 181.753204,94.958481 178.692230,92.062096 
	C167.501587,81.473190 164.538483,81.656013 156.225479,94.110649 
	C146.706055,108.372787 137.523315,122.864792 128.457275,137.420715 
	C126.247940,140.967880 124.133545,141.781021 120.409721,140.026031 
	C111.237160,135.703079 101.966812,131.586853 92.719917,127.422752 
	C89.381622,125.919418 88.297081,123.836533 90.165894,120.342804 
	C98.874977,104.061310 107.295326,87.622200 116.209946,71.455070 
	C121.114922,62.559639 129.379196,58.599636 139.379898,58.118710 
	C160.340729,57.110722 180.937195,58.905857 201.040039,65.436325 
	C221.772537,72.171349 232.747559,88.105423 240.974945,106.796608 
	C241.779099,108.623497 242.523529,110.476784 243.338577,112.298622 
	C243.459778,112.569496 243.818710,112.734009 244.494812,113.314430 
	C246.048981,112.677872 247.840546,111.944077 249.984879,111.067680 
M208.837051,72.259132 
	C206.057449,69.018280 202.599762,69.385963 199.303268,70.911438 
	C193.135788,73.765472 187.049911,76.815674 181.070496,80.044281 
	C179.267502,81.017807 176.394897,83.785103 176.614243,84.145050 
	C178.791809,87.718285 181.131302,84.574562 183.336578,83.751503 
	C185.661407,82.883835 187.772308,81.456085 190.075409,80.514565 
	C196.346893,77.950722 202.670517,75.514412 208.868774,73.720314 
	C206.980392,75.185837 205.277206,77.038673 203.169876,78.046341 
	C196.030243,81.460304 188.747559,84.575104 181.519531,87.804214 
	C181.602280,88.477631 181.685028,89.151039 181.767792,89.824455 
	C183.329330,89.824455 185.098663,90.309349 186.417953,89.744019 
	C193.754120,86.600395 200.948578,83.127411 208.265564,79.936935 
	C210.409149,79.002251 212.794769,78.622673 215.069458,77.988678 
	C215.215073,78.519844 215.360687,79.051010 215.506287,79.582184 
	C206.010742,84.061699 196.515182,88.541222 187.116241,92.975159 
	C188.347534,97.508888 190.785431,96.778198 193.200531,95.730415 
	C199.608505,92.950340 205.979477,90.085091 212.376755,87.280136 
	C215.491867,85.914284 218.632843,84.607414 222.283371,83.051704 
	C218.132141,78.442139 215.161682,73.679962 208.837051,72.259132 
M157.306793,85.800438 
	C163.687103,76.766037 171.687180,69.661652 182.285934,64.966911 
	C169.242813,63.057606 156.514847,61.950275 143.763763,61.504013 
	C131.992584,61.092049 123.309898,66.726089 117.778496,76.999168 
	C110.043274,91.365211 102.547134,105.859863 94.846245,120.244629 
	C93.226669,123.269890 94.231842,124.833946 97.061958,126.005234 
	C104.444092,129.060425 111.817223,132.138657 119.161156,135.284241 
	C122.457771,136.696274 124.388916,135.969086 126.455345,132.736237 
	C136.410782,117.161354 146.707596,101.804710 157.306793,85.800438 
M219.910248,131.464600 
	C230.329758,127.223625 240.749268,122.982651 251.168793,118.741676 
	C251.504471,119.540001 251.840149,120.338318 252.175827,121.136635 
	C237.347763,129.041229 221.153839,134.046066 205.399368,141.472900 
	C212.678848,144.885803 218.944931,147.256622 226.515839,142.951767 
	C234.584335,138.363968 243.349838,134.979477 251.890442,131.251511 
	C258.833923,128.220688 263.371857,118.202690 260.903564,110.291397 
	C256.511200,112.284164 252.172714,114.311577 247.784927,116.225998 
	C243.677277,118.018196 240.822586,117.081116 239.274399,112.513344 
	C238.211777,109.378174 236.651886,106.400459 235.186905,103.414871 
	C230.917618,94.714211 230.881500,94.698265 221.823990,98.234756 
	C213.676468,101.415939 205.556763,104.668358 197.565674,107.833565 
	C198.418854,113.217484 201.010071,113.356659 204.890289,111.934425 
	C212.533493,109.132919 220.298874,106.658913 228.052414,104.169891 
	C229.391891,103.739883 230.922043,103.903824 232.364120,103.793396 
	C232.541977,104.421364 232.719833,105.049332 232.897690,105.677292 
	C222.725204,109.359497 212.552704,113.041710 202.416656,116.710724 
	C204.883011,123.593864 205.024384,123.491135 210.418304,121.347252 
	C217.366241,118.585709 224.450592,116.163475 231.509262,113.689430 
	C232.389786,113.380806 233.471893,113.647285 234.460587,113.647285 
	C234.592087,114.079933 234.723587,114.512581 234.855087,114.945221 
	C220.951340,121.843491 205.716309,126.259422 192.226471,136.152237 
	C196.629059,138.592804 199.602600,140.506256 204.021805,138.115585 
	C208.821533,135.519073 214.115814,133.836777 219.910248,131.464600 
M256.179016,137.022751 
	C257.194244,133.009003 254.944763,134.161682 252.999466,135.063950 
	C246.971420,137.859833 240.966705,140.705978 234.955002,143.537018 
	C231.890854,144.979965 228.831177,146.432388 225.769470,147.880524 
	C225.814758,148.482590 225.860046,149.084656 225.905319,149.686722 
	C230.653900,150.066055 235.442184,150.975372 240.135971,150.623535 
	C242.898041,150.416504 245.408554,147.903168 248.212463,146.966995 
	C252.810654,145.431747 255.241028,142.353424 256.179016,137.022751 
M213.241013,97.761230 
	C218.132263,95.860741 223.023514,93.960251 227.944809,92.048096 
	C227.149277,88.715370 226.207306,86.188553 222.517258,87.683594 
	C213.430679,91.365059 204.350861,95.070625 195.380951,99.022163 
	C194.385284,99.460785 194.117615,101.551971 193.512329,102.876747 
	C194.900238,103.229843 196.505417,104.215950 197.638596,103.826965 
	C202.668945,102.100204 207.563934,99.979179 213.241013,97.761230 
M175.005966,74.455109 
	C173.010925,76.168976 171.015869,77.882835 169.020828,79.596703 
	C169.422119,80.178375 169.823410,80.760056 170.224716,81.341736 
	C178.875015,76.911736 187.525314,72.481735 196.175613,68.051735 
	C188.155640,66.726646 181.877487,70.404297 175.005966,74.455109 
z"/>
<path fill="#0A592D" opacity="1.000000" stroke="none" 
	d="
M280.369629,172.610458 
	C283.792969,182.395279 286.903778,191.880798 290.427826,201.210236 
	C292.700836,207.227661 292.893585,213.049271 289.534515,218.487396 
	C283.075897,228.943420 276.571960,239.396057 269.511871,249.446198 
	C265.623230,254.981781 260.019775,258.652222 252.862564,259.436005 
	C251.162018,259.622223 249.597397,261.049438 248.112961,261.830719 
	C246.085083,261.359894 243.914948,260.563354 241.698074,260.399597 
	C236.371399,260.006134 231.264709,261.977234 225.781967,261.611328 
	C219.877792,261.217285 213.870438,262.654327 207.891083,262.978943 
	C204.960144,263.138092 203.990402,264.175415 203.712479,267.116882 
	C203.416718,270.247070 202.161621,273.286591 201.325394,276.365723 
	C198.387146,274.725616 194.961731,273.598663 192.597321,271.354095 
	C183.674622,262.883575 175.164200,253.980652 166.353638,245.389145 
	C163.229401,242.342621 163.602280,240.002045 166.557190,237.127991 
	C171.088531,232.720612 176.407730,228.626282 179.400940,223.283340 
	C182.050949,218.553024 186.726868,217.386993 189.995163,214.035675 
	C192.909149,211.047653 194.850143,211.967422 195.828003,216.038879 
	C196.552048,219.053452 197.075348,222.116241 197.688065,225.157562 
	C198.239960,225.517975 198.791840,225.878372 199.343719,226.238785 
	C199.871750,224.944534 200.399765,223.650269 200.557526,223.263565 
	C202.930725,223.967117 204.846252,225.157883 206.604416,224.958786 
	C222.298294,223.181610 237.964417,221.159195 254.723099,219.074081 
	C247.614243,204.724518 240.970459,191.313766 233.808716,176.857468 
	C248.103577,173.029053 261.365814,169.387955 274.681366,165.953705 
	C280.232208,164.522079 278.588928,169.949829 280.369629,172.610458 
M266.119904,242.886993 
	C266.119904,243.950073 266.119904,245.013153 266.119904,246.076233 
	C266.653870,246.309494 267.187866,246.542755 267.721832,246.776016 
	C274.312683,235.917816 281.299225,225.269012 287.230377,214.061661 
	C288.814148,211.068985 288.000793,206.102142 286.847839,202.502930 
	C283.754883,192.847656 279.728088,183.495621 276.402435,173.908585 
	C275.224274,170.512238 273.808868,169.432388 270.253571,170.556686 
	C261.849792,173.214233 253.382141,175.691238 244.865784,177.961746 
	C241.001221,178.992065 239.947876,180.732346 241.830185,184.312103 
	C246.241959,192.702286 250.537079,201.153854 254.956940,209.539703 
	C260.366394,219.803207 267.212738,229.556305 266.119904,242.886993 
M200.761902,234.968613 
	C199.957397,232.318344 200.575165,228.812866 196.177643,228.423203 
	C195.405487,228.354767 194.663254,226.087280 194.210922,224.733871 
	C193.621460,222.970169 193.335144,221.105133 192.918396,219.283707 
	C192.962234,234.796341 194.000534,250.128098 195.036896,265.459991 
	C195.070450,265.956451 194.899017,266.583557 195.139877,266.928741 
	C196.119781,268.333008 197.223251,269.651093 199.158356,272.120178 
	C199.901718,267.350922 200.275192,264.321228 200.870148,261.335632 
	C201.356369,258.895813 202.720505,256.482849 202.620361,254.103226 
	C202.363556,248.001328 201.508224,241.924606 200.761902,234.968613 
M190.973984,249.547379 
	C190.311844,240.247665 189.649719,230.947952 188.987579,221.648224 
	C188.334396,221.479187 187.681213,221.310135 187.028015,221.141098 
	C186.045853,223.312912 184.172638,225.509857 184.233078,227.652267 
	C184.521698,237.886780 185.103012,248.129990 186.135818,258.313782 
	C186.373810,260.660492 188.798920,262.785370 190.217560,265.012299 
	C190.770157,264.730652 191.322739,264.449005 191.875336,264.167358 
	C191.577515,259.609741 191.279694,255.052124 190.973984,249.547379 
M244.006729,237.423111 
	C243.692917,234.463135 243.613464,231.451019 242.971390,228.564056 
	C242.624359,227.003571 241.408035,224.506546 240.424774,224.428162 
	C237.411194,224.187958 236.728455,226.569214 237.040756,229.203522 
	C237.995087,237.253296 238.828583,245.322174 240.061905,253.329285 
	C240.264221,254.642731 242.250473,255.681412 243.412216,256.847076 
	C244.160904,255.446426 245.597733,254.013565 245.533905,252.650986 
	C245.309937,247.869354 244.569458,243.111938 244.006729,237.423111 
M205.442703,254.851608 
	C206.372711,256.653839 205.096573,260.416412 208.829453,259.571198 
	C209.887955,259.331512 210.978790,256.209595 210.893555,254.466278 
	C210.520813,246.841309 209.872162,239.218445 208.931854,231.643448 
	C208.770157,230.340836 206.708160,229.274094 205.523972,228.098404 
	C204.756607,229.621780 203.262695,231.185745 203.345154,232.661636 
	C203.743332,239.787628 204.565750,246.889923 205.442703,254.851608 
M249.067657,253.166748 
	C250.304581,254.079651 251.541504,254.992538 252.778427,255.905441 
	C253.508682,254.646988 254.966843,253.317947 254.852753,252.141373 
	C254.024185,243.597168 253.000641,235.065033 251.700851,226.580841 
	C251.507874,225.321198 249.539749,224.333511 248.392883,223.220016 
	C247.855209,224.516251 246.780029,225.849701 246.866745,227.102737 
	C247.448166,235.504913 248.276764,243.889954 249.067657,253.166748 
M228.325394,227.812180 
	C228.553085,229.288742 228.811127,230.761368 229.003387,232.242523 
	C229.964798,239.649643 230.807236,247.074890 231.959076,254.451981 
	C232.151749,255.686005 233.660706,256.714478 234.561462,257.837921 
	C235.355164,256.468689 236.337540,255.168076 236.870224,253.703873 
	C237.179016,252.855148 236.795166,251.739410 236.670502,250.750458 
	C235.777786,243.668182 234.799072,236.595840 233.995438,229.503601 
	C233.470963,224.874908 232.945114,224.580841 228.325394,227.812180 
M221.984985,250.440018 
	C222.207535,252.081482 222.104675,253.870102 222.758759,255.316406 
	C223.254959,256.413574 224.715225,257.074799 225.746490,257.929993 
	C226.490097,256.856812 227.960968,255.712662 227.864243,254.721512 
	C226.951385,245.368805 225.771301,236.042191 224.675674,226.770538 
	C220.230621,226.325012 219.754562,228.674561 220.081558,231.716873 
	C220.720093,237.657471 221.338333,243.600235 221.984985,250.440018 
M212.961395,238.681091 
	C213.333832,244.136749 213.745117,249.590118 214.065079,255.048843 
	C214.280273,258.719818 216.092804,259.547943 219.706421,258.292175 
	C218.768829,248.808563 217.904709,239.449966 216.831924,230.115356 
	C216.716949,229.115067 215.386261,228.254501 214.619507,227.329102 
	C213.772583,228.339188 212.266266,229.314819 212.211319,230.366302 
	C212.083603,232.810120 212.655930,235.290527 212.961395,238.681091 
M177.783524,231.720779 
	C173.543594,238.529419 176.136215,252.814117 181.801086,256.504913 
	C181.801086,248.372345 182.051880,239.888336 181.668610,231.433075 
	C181.529541,228.365326 179.548752,230.113678 177.783524,231.720779 
M260.545410,230.206696 
	C259.325134,227.146378 258.854034,223.523651 254.412354,222.074554 
	C255.893112,232.575546 257.295624,242.521652 258.698120,252.467758 
	C263.390320,245.491760 262.299927,238.255325 260.545410,230.206696 
M173.631332,239.750824 
	C172.225098,240.330414 170.818863,240.910019 169.412628,241.489609 
	C170.446869,243.471786 171.481110,245.453964 172.515335,247.436142 
	C172.952164,247.212082 173.389008,246.988022 173.825836,246.763962 
	C173.825836,244.658646 173.825836,242.553329 173.631332,239.750824 
z"/>
<path fill="#0C5A2E" opacity="1.000000" stroke="none" 
	d="
M98.047714,145.182358 
	C99.683235,146.203979 102.197830,146.861679 102.798164,148.311829 
	C105.081772,153.828125 108.341850,158.005585 114.286293,159.690384 
	C115.365273,159.996201 116.384811,160.511734 117.431786,160.930435 
	C116.958611,161.614334 116.485443,162.298233 116.012268,162.982132 
	C114.233360,162.641968 112.454453,162.301819 110.675552,161.961670 
	C110.343887,162.243774 110.012230,162.525879 109.680565,162.807983 
	C111.524727,164.867142 113.368896,166.926300 115.050201,168.803619 
	C112.363564,175.164536 119.423424,179.733383 118.708229,186.357208 
	C116.129509,186.049500 113.522911,185.884262 110.974724,185.407059 
	C103.341370,183.977615 103.350281,183.930008 100.069473,191.794830 
	C103.722260,193.674957 107.410255,195.573212 111.098251,197.471466 
	C110.778206,198.184372 110.458160,198.897293 110.138123,199.610199 
	C107.310707,198.501938 104.515411,197.298477 101.641151,196.329132 
	C100.371758,195.901016 98.942253,195.947678 97.585434,195.778778 
	C97.585434,197.139465 97.585434,198.500137 97.585434,200.026031 
	C94.057899,202.061722 89.066002,213.897064 91.056709,217.661896 
	C91.909187,219.274109 95.030640,220.432953 97.162811,220.501526 
	C111.481277,220.961960 125.811188,221.061020 140.136887,221.306320 
	C144.132385,221.374710 148.183838,221.193298 152.091354,221.840500 
	C153.573090,222.085922 155.873520,224.372543 155.841019,225.680099 
	C155.560211,236.978958 154.989426,248.279739 154.057159,259.542877 
	C153.926407,261.122528 151.382050,263.772095 149.936142,263.784760 
	C123.679665,264.014893 97.628098,262.136902 72.842400,252.613556 
	C69.280113,251.244827 65.625839,247.311554 64.208313,243.703140 
	C60.327160,233.823380 57.492085,223.520401 54.488514,213.312714 
	C52.652275,207.072235 55.428768,201.559006 58.019566,196.116714 
	C62.071186,187.605774 66.141388,179.103683 70.310326,170.374619 
	C65.286011,168.061722 60.994499,166.086151 56.702984,164.110596 
	C56.656734,163.602020 56.610481,163.093445 56.564228,162.584869 
	C62.430199,159.654846 68.205589,156.522308 74.185860,153.847870 
	C81.116325,150.748505 88.226822,148.051743 95.522224,145.669891 
	C94.379784,147.397568 92.974289,148.635559 91.033112,150.345383 
	C94.638863,151.672791 97.718971,152.806702 101.729431,154.283112 
	C100.226593,150.568283 99.137161,147.875320 98.047714,145.182358 
M63.895515,198.047195 
	C72.335289,200.596039 80.775063,203.144867 89.080917,205.653259 
	C92.090492,201.417679 91.135330,199.211105 86.497353,197.893600 
	C81.257248,196.405014 76.171913,194.371765 71.018852,192.576553 
	C64.843956,190.425354 63.451294,191.252945 61.418697,198.485184 
	C61.349010,201.139359 60.422234,204.155869 61.363579,206.382629 
	C64.758247,214.412720 75.405113,220.500259 84.022903,219.862808 
	C84.977242,219.792221 85.870178,218.891571 86.791588,218.375885 
	C86.012726,217.289276 85.446968,215.570251 84.418716,215.223770 
	C79.544388,213.581314 74.520317,212.388123 69.610680,210.841019 
	C68.757019,210.572037 68.196762,209.371994 67.500984,208.601990 
	C68.462364,208.170624 69.538475,207.215851 70.365562,207.397156 
	C74.254234,208.249512 78.057274,209.483963 81.926750,210.436234 
	C83.775925,210.891312 85.704895,211.022202 87.597717,211.299942 
	C87.703613,210.806107 87.809509,210.312271 87.915405,209.818436 
	C86.471992,209.219055 85.056992,208.535934 83.580193,208.034943 
	C77.597694,206.005493 71.589516,204.051788 65.605667,202.026230 
	C63.746330,201.396851 61.358871,200.989151 63.895515,198.047195 
M59.180969,210.135239 
	C58.938835,210.213394 58.674095,210.255905 58.466053,210.387833 
	C58.386292,210.438400 58.389618,210.707062 58.433327,210.852890 
	C61.485046,221.034836 64.458389,231.241486 67.640465,241.382629 
	C69.209160,246.382004 72.896774,249.188385 77.916710,250.652191 
	C99.814301,257.037506 122.251617,259.437683 144.951035,260.092438 
	C147.983047,260.179901 149.649750,259.167877 149.899185,255.988632 
	C150.536560,247.864502 151.168579,239.737305 152.010193,231.632889 
	C152.475388,227.153229 150.962296,225.630692 146.286865,225.557068 
	C127.317886,225.258347 108.328392,224.972321 89.401131,223.799362 
	C78.122551,223.100388 66.589706,221.549881 59.180969,210.135239 
M94.228493,169.241638 
	C99.520836,171.192413 104.813171,173.143188 110.525490,175.248779 
	C110.335686,170.196381 108.127113,168.170364 104.585526,167.030975 
	C97.139496,164.635452 89.404320,162.782318 82.422935,159.396851 
	C75.110313,155.850800 70.610214,159.409210 64.989273,163.735199 
	C67.176445,164.717865 68.842117,165.347275 70.386200,166.197479 
	C71.629486,166.882034 73.649460,167.758347 73.724457,168.679840 
	C74.019958,172.310699 76.727318,172.662933 79.194313,173.534836 
	C85.154778,175.641434 90.994987,178.232208 97.103996,179.727982 
	C101.786049,180.874344 106.804573,180.646515 111.673447,181.029846 
	C111.728065,180.659073 111.782684,180.288284 111.837303,179.917496 
	C98.693848,174.910583 85.550400,169.903671 72.406944,164.896774 
	C72.614098,164.309158 72.821251,163.721542 73.028404,163.133942 
	C80.425926,162.793869 86.583694,167.368744 94.228493,169.241638 
M93.218216,182.232254 
	C87.734329,180.309311 82.251801,178.382477 76.766014,176.464981 
	C73.778702,175.420807 71.605537,176.166367 70.352814,179.248520 
	C69.666298,180.937592 68.780823,182.547821 67.950333,184.175903 
	C66.724777,186.578400 67.002129,188.130707 69.941833,189.007812 
	C76.465828,190.954330 82.900032,193.200546 89.412239,195.188980 
	C90.731400,195.591782 92.233215,195.396362 93.650826,195.476730 
	C93.837563,194.733643 94.024307,193.990540 94.211052,193.247437 
	C86.129265,190.528717 78.047470,187.809998 69.965683,185.091278 
	C70.105095,184.595322 70.244507,184.099380 70.383926,183.603439 
	C71.408981,183.603439 72.496605,183.376846 73.449036,183.639832 
	C80.156265,185.491867 86.806389,187.561584 93.552559,189.251038 
	C94.687500,189.535263 96.696121,188.658447 97.373993,187.677460 
	C97.883583,186.940002 97.155136,185.032242 96.505905,183.921234 
	C96.084312,183.199768 94.814400,182.973999 93.218216,182.232254 
M90.192085,153.254944 
	C86.875450,151.795151 83.921036,151.839874 81.301277,155.491348 
	C89.498001,158.415863 97.328575,161.209747 105.159157,164.003616 
	C105.541077,163.477325 105.922997,162.951035 106.304916,162.424744 
	C104.850548,160.997971 103.622643,159.137131 101.894333,158.235428 
	C98.372284,156.397842 94.580482,155.077286 90.192085,153.254944 
z"/>
<path fill="#93BA6F" opacity="1.000000" stroke="none" 
	d="
M84.329643,303.307190 
	C78.732567,305.657013 73.997124,309.782013 67.154999,308.652832 
	C70.509300,303.759399 82.945885,298.597351 88.469383,299.983490 
	C86.887497,301.290131 85.773003,302.210724 84.329643,303.307190 
z"/>
<path fill="#93BB6F" opacity="1.000000" stroke="none" 
	d="
M174.055634,298.281006 
	C174.777084,299.101562 175.650330,300.529053 175.434280,300.719269 
	C170.526215,305.039978 165.287460,308.792908 158.400589,309.285736 
	C161.281418,302.419037 168.276474,301.471954 174.055634,298.281006 
z"/>
<path fill="#94BB6F" opacity="1.000000" stroke="none" 
	d="
M141.379456,306.423828 
	C145.244400,304.086334 148.730484,301.800781 152.424561,299.924835 
	C153.389816,299.434570 155.002090,300.218414 156.317215,300.417114 
	C155.727219,301.483398 155.406311,303.001007 154.502029,303.540192 
	C149.857529,306.309448 145.063065,308.827148 140.320984,311.432739 
	C139.915039,311.027222 139.509109,310.621704 139.103165,310.216187 
	C139.761536,309.020325 140.419891,307.824493 141.379456,306.423828 
z"/>
<path fill="#94BB70" opacity="1.000000" stroke="none" 
	d="
M96.270920,307.351379 
	C93.000931,308.516510 90.071526,309.513794 87.142113,310.511078 
	C89.253120,305.444733 102.519051,298.956024 107.078514,300.847290 
	C103.589508,302.959381 100.100502,305.071472 96.270920,307.351379 
z"/>
<path fill="#94BC6F" opacity="1.000000" stroke="none" 
	d="
M126.847244,303.863586 
	C129.865021,302.066284 132.538757,300.390289 135.333603,298.949127 
	C136.046799,298.581390 137.211700,298.780975 138.025513,299.093597 
	C138.290680,299.195496 138.393402,300.962067 138.073578,301.158569 
	C133.234268,304.131592 128.318726,306.981384 123.382545,309.792480 
	C123.206619,309.892700 122.634964,309.298035 121.368843,308.412567 
	C123.279541,306.811340 124.913864,305.441711 126.847244,303.863586 
z"/>
<path fill="#95BC70" opacity="1.000000" stroke="none" 
	d="
M210.054596,297.921509 
	C210.389038,298.446716 210.647827,298.945953 210.545380,299.036560 
	C205.887924,303.154144 201.198792,307.235931 196.031082,311.742554 
	C195.056808,305.912231 203.005768,298.669006 210.054596,297.921509 
z"/>
<path fill="#92BA6E" opacity="1.000000" stroke="none" 
	d="
M118.943222,303.959229 
	C113.930748,305.695862 110.360634,310.508240 104.163078,309.644958 
	C107.566414,304.496124 118.716225,298.928650 123.519867,300.219086 
	C121.836014,301.625519 120.548721,302.700714 118.943222,303.959229 
z"/>
<path fill="#93BA6E" opacity="1.000000" stroke="none" 
	d="
M192.658539,302.633301 
	C188.155579,305.872162 184.355392,309.870331 178.800583,309.912933 
	C178.471924,309.331573 178.143280,308.750214 177.814621,308.168854 
	C183.029282,304.570038 188.243958,300.971222 193.458633,297.372406 
	C193.920639,297.855927 194.382660,298.339447 194.844681,298.822968 
	C194.200592,300.008850 193.556488,301.194702 192.658539,302.633301 
z"/>
<path fill="#93BA6E" opacity="1.000000" stroke="none" 
	d="
M211.320831,306.269775 
	C220.173660,298.952026 221.268188,298.370544 226.210358,298.705078 
	C225.444092,300.008270 225.077789,301.297180 224.224991,301.962555 
	C221.079498,304.416779 217.845688,306.779297 214.478287,308.913116 
	C213.587326,309.477722 212.098480,309.098785 210.884171,309.153076 
	C210.950241,308.276581 211.016312,307.400085 211.320831,306.269775 
z"/>
<path fill="#93BA6E" opacity="1.000000" stroke="none" 
	d="
M237.966721,303.932129 
	C234.576111,306.475800 232.033005,309.993835 227.211456,310.035828 
	C228.667175,304.213867 236.541077,298.251556 242.478485,298.815063 
	C240.765259,300.758820 239.485214,302.211090 237.966721,303.932129 
z"/>
<path fill="#93BB6E" opacity="1.000000" stroke="none" 
	d="
M250.775513,304.754974 
	C248.452408,306.376923 246.492691,307.915344 244.352051,309.136658 
	C243.717560,309.498688 242.230560,309.276733 241.762314,308.756744 
	C241.318863,308.264282 241.322510,306.553406 241.775269,306.195709 
	C246.367874,302.567322 251.103500,299.128082 256.868896,297.807465 
	C257.241272,298.357300 257.613647,298.907104 257.985992,299.456909 
	C255.680588,301.154663 253.375168,302.852417 250.775513,304.754974 
z"/>
<path fill="#90B96C" opacity="1.000000" stroke="none" 
	d="
M268.344360,298.675659 
	C268.799438,299.764923 269.494171,301.528656 268.979980,302.015503 
	C266.352570,304.503113 263.485199,306.762939 260.527618,308.856476 
	C259.864288,309.326019 258.503571,308.810425 257.463928,308.748352 
	C257.785553,307.763336 257.804626,306.404083 258.480713,305.857574 
	C261.561615,303.367157 264.827240,301.105225 268.344360,298.675659 
z"/>
<path fill="#93BB6F" opacity="1.000000" stroke="none" 
	d="
M277.877319,301.824097 
	C279.992737,300.712463 281.817810,299.806488 284.194519,298.626678 
	C282.400299,304.160187 276.485657,308.564453 270.023376,308.500122 
	C273.192902,305.788696 275.389954,303.909210 277.877319,301.824097 
z"/>
<path fill="#0C8C42" opacity="1.000000" stroke="none" 
	d="
M97.692963,145.200165 
	C99.137161,147.875320 100.226593,150.568283 101.729431,154.283112 
	C97.718971,152.806702 94.638863,151.672791 91.033112,150.345383 
	C92.974289,148.635559 94.379784,147.397568 95.872849,145.862167 
	C96.419678,145.449158 96.878937,145.333572 97.692963,145.200165 
z"/>
<path fill="#8CC540" opacity="1.000000" stroke="none" 
	d="
M157.095032,86.085526 
	C146.707596,101.804710 136.410782,117.161354 126.455345,132.736237 
	C124.388916,135.969086 122.457771,136.696274 119.161156,135.284241 
	C111.817223,132.138657 104.444092,129.060425 97.061958,126.005234 
	C94.231842,124.833946 93.226669,123.269890 94.846245,120.244629 
	C102.547134,105.859863 110.043274,91.365211 117.778496,76.999168 
	C123.309898,66.726089 131.992584,61.092049 143.763763,61.504013 
	C156.514847,61.950275 169.242813,63.057606 182.285934,64.966911 
	C171.687180,69.661652 163.687103,76.766037 157.095032,86.085526 
z"/>
<path fill="#0B9143" opacity="1.000000" stroke="none" 
	d="
M219.552338,131.610229 
	C214.115814,133.836777 208.821533,135.519073 204.021805,138.115585 
	C199.602600,140.506256 196.629059,138.592804 192.226471,136.152237 
	C205.716309,126.259422 220.951340,121.843491 234.855087,114.945221 
	C234.723587,114.512581 234.592087,114.079933 234.460587,113.647285 
	C233.471893,113.647285 232.389786,113.380806 231.509262,113.689430 
	C224.450592,116.163475 217.366241,118.585709 210.418304,121.347252 
	C205.024384,123.491135 204.883011,123.593864 202.416656,116.710724 
	C212.552704,113.041710 222.725204,109.359497 232.897690,105.677292 
	C232.719833,105.049332 232.541977,104.421364 232.364120,103.793396 
	C230.922043,103.903824 229.391891,103.739883 228.052414,104.169891 
	C220.298874,106.658913 212.533493,109.132919 204.890289,111.934425 
	C201.010071,113.356659 198.418854,113.217484 197.565674,107.833565 
	C205.556763,104.668358 213.676468,101.415939 221.823990,98.234756 
	C230.881500,94.698265 230.917618,94.714211 235.186905,103.414871 
	C236.651886,106.400459 238.211777,109.378174 239.274399,112.513344 
	C240.822586,117.081116 243.677277,118.018196 247.784927,116.225998 
	C252.172714,114.311577 256.511200,112.284164 260.903564,110.291397 
	C263.371857,118.202690 258.833923,128.220688 251.890442,131.251511 
	C243.349838,134.979477 234.584335,138.363968 226.515839,142.951767 
	C218.944931,147.256622 212.678848,144.885803 205.399368,141.472900 
	C221.153839,134.046066 237.347763,129.041229 252.175827,121.136635 
	C251.840149,120.338318 251.504471,119.540001 251.168793,118.741676 
	C240.749268,122.982651 230.329758,127.223625 219.552338,131.610229 
z"/>
<path fill="#0B8E42" opacity="1.000000" stroke="none" 
	d="
M209.032822,72.964615 
	C215.161682,73.679962 218.132141,78.442139 222.283371,83.051704 
	C218.632843,84.607414 215.491867,85.914284 212.376755,87.280136 
	C205.979477,90.085091 199.608505,92.950340 193.200531,95.730415 
	C190.785431,96.778198 188.347534,97.508888 187.116241,92.975159 
	C196.515182,88.541222 206.010742,84.061699 215.506287,79.582184 
	C215.360687,79.051010 215.215073,78.519844 215.069458,77.988678 
	C212.794769,78.622673 210.409149,79.002251 208.265564,79.936935 
	C200.948578,83.127411 193.754120,86.600395 186.417953,89.744019 
	C185.098663,90.309349 183.329330,89.824455 181.767792,89.824455 
	C181.685028,89.151039 181.602280,88.477631 181.519531,87.804214 
	C188.747559,84.575104 196.030243,81.460304 203.169876,78.046341 
	C205.277206,77.038673 206.980392,75.185837 208.936035,73.358345 
	C209.003296,72.996376 209.032822,72.964615 209.032822,72.964615 
z"/>
<path fill="#0B9043" opacity="1.000000" stroke="none" 
	d="
M256.106384,137.381409 
	C255.241028,142.353424 252.810654,145.431747 248.212463,146.966995 
	C245.408554,147.903168 242.898041,150.416504 240.135971,150.623535 
	C235.442184,150.975372 230.653900,150.066055 225.905319,149.686722 
	C225.860046,149.084656 225.814758,148.482590 225.769470,147.880524 
	C228.831177,146.432388 231.890854,144.979965 234.955002,143.537018 
	C240.966705,140.705978 246.971420,137.859833 252.999466,135.063950 
	C254.944763,134.161682 257.194244,133.009003 256.106384,137.381409 
z"/>
<path fill="#0B8F43" opacity="1.000000" stroke="none" 
	d="
M212.874451,97.880989 
	C207.563934,99.979179 202.668945,102.100204 197.638596,103.826965 
	C196.505417,104.215950 194.900238,103.229843 193.512329,102.876747 
	C194.117615,101.551971 194.385284,99.460785 195.380951,99.022163 
	C204.350861,95.070625 213.430679,91.365059 222.517258,87.683594 
	C226.207306,86.188553 227.149277,88.715370 227.944809,92.048096 
	C223.023514,93.960251 218.132263,95.860741 212.874451,97.880989 
z"/>
<path fill="#0B8E42" opacity="1.000000" stroke="none" 
	d="
M208.988388,73.011971 
	C202.670517,75.514412 196.346893,77.950722 190.075409,80.514565 
	C187.772308,81.456085 185.661407,82.883835 183.336578,83.751503 
	C181.131302,84.574562 178.791809,87.718285 176.614243,84.145050 
	C176.394897,83.785103 179.267502,81.017807 181.070496,80.044281 
	C187.049911,76.815674 193.135788,73.765472 199.303268,70.911438 
	C202.599762,69.385963 206.057449,69.018280 208.934937,72.611877 
	C209.032822,72.964615 209.003296,72.996376 208.988388,73.011971 
z"/>
<path fill="#0B8E43" opacity="1.000000" stroke="none" 
	d="
M175.287811,74.222969 
	C181.877487,70.404297 188.155640,66.726646 196.175613,68.051735 
	C187.525314,72.481735 178.875015,76.911736 170.224716,81.341736 
	C169.823410,80.760056 169.422119,80.178375 169.020828,79.596703 
	C171.015869,77.882835 173.010925,76.168976 175.287811,74.222969 
z"/>
<path fill="#8CC440" opacity="1.000000" stroke="none" 
	d="
M266.142090,242.464020 
	C267.212738,229.556305 260.366394,219.803207 254.956940,209.539703 
	C250.537079,201.153854 246.241959,192.702286 241.830185,184.312103 
	C239.947876,180.732346 241.001221,178.992065 244.865784,177.961746 
	C253.382141,175.691238 261.849792,173.214233 270.253571,170.556686 
	C273.808868,169.432388 275.224274,170.512238 276.402435,173.908585 
	C279.728088,183.495621 283.754883,192.847656 286.847839,202.502930 
	C288.000793,206.102142 288.814148,211.068985 287.230377,214.061661 
	C281.299225,225.269012 274.312683,235.917816 267.721832,246.776016 
	C267.187866,246.542755 266.653870,246.309494 266.119904,246.076233 
	C266.119904,245.013153 266.119904,243.950073 266.142090,242.464020 
z"/>
<path fill="#0B9042" opacity="1.000000" stroke="none" 
	d="
M200.827057,235.403229 
	C201.508224,241.924606 202.363556,248.001328 202.620361,254.103226 
	C202.720505,256.482849 201.356369,258.895813 200.870148,261.335632 
	C200.275192,264.321228 199.901718,267.350922 199.158356,272.120178 
	C197.223251,269.651093 196.119781,268.333008 195.139877,266.928741 
	C194.899017,266.583557 195.070450,265.956451 195.036896,265.459991 
	C194.000534,250.128098 192.962234,234.796341 192.918396,219.283707 
	C193.335144,221.105133 193.621460,222.970169 194.210922,224.733871 
	C194.663254,226.087280 195.405487,228.354767 196.177643,228.423203 
	C200.575165,228.812866 199.957397,232.318344 200.827057,235.403229 
z"/>
<path fill="#0B8F43" opacity="1.000000" stroke="none" 
	d="
M190.977936,250.020935 
	C191.279694,255.052124 191.577515,259.609741 191.875336,264.167358 
	C191.322739,264.449005 190.770157,264.730652 190.217560,265.012299 
	C188.798920,262.785370 186.373810,260.660492 186.135818,258.313782 
	C185.103012,248.129990 184.521698,237.886780 184.233078,227.652267 
	C184.172638,225.509857 186.045853,223.312912 187.028015,221.141098 
	C187.681213,221.310135 188.334396,221.479187 188.987579,221.648224 
	C189.649719,230.947952 190.311844,240.247665 190.977936,250.020935 
z"/>
<path fill="#0B9043" opacity="1.000000" stroke="none" 
	d="
M244.015884,237.884216 
	C244.569458,243.111938 245.309937,247.869354 245.533905,252.650986 
	C245.597733,254.013565 244.160904,255.446426 243.412216,256.847076 
	C242.250473,255.681412 240.264221,254.642731 240.061905,253.329285 
	C238.828583,245.322174 237.995087,237.253296 237.040756,229.203522 
	C236.728455,226.569214 237.411194,224.187958 240.424774,224.428162 
	C241.408035,224.506546 242.624359,227.003571 242.971390,228.564056 
	C243.613464,231.451019 243.692917,234.463135 244.015884,237.884216 
z"/>
<path fill="#0B8F43" opacity="1.000000" stroke="none" 
	d="
M205.340210,254.426117 
	C204.565750,246.889923 203.743332,239.787628 203.345154,232.661636 
	C203.262695,231.185745 204.756607,229.621780 205.523972,228.098389 
	C206.708160,229.274094 208.770157,230.340836 208.931854,231.643448 
	C209.872162,239.218445 210.520813,246.841309 210.893555,254.466278 
	C210.978790,256.209595 209.887955,259.331512 208.829453,259.571198 
	C205.096573,260.416412 206.372711,256.653839 205.340210,254.426117 
z"/>
<path fill="#0A8F42" opacity="1.000000" stroke="none" 
	d="
M249.046448,252.723663 
	C248.276764,243.889954 247.448166,235.504913 246.866745,227.102737 
	C246.780029,225.849701 247.855209,224.516251 248.392883,223.220016 
	C249.539749,224.333511 251.507874,225.321198 251.700851,226.580841 
	C253.000641,235.065033 254.024185,243.597168 254.852753,252.141373 
	C254.966843,253.317947 253.508682,254.646988 252.778427,255.905441 
	C251.541504,254.992538 250.304581,254.079651 249.046448,252.723663 
z"/>
<path fill="#0B8E42" opacity="1.000000" stroke="none" 
	d="
M228.387207,227.439484 
	C232.945114,224.580841 233.470963,224.874908 233.995438,229.503601 
	C234.799072,236.595840 235.777786,243.668182 236.670502,250.750458 
	C236.795166,251.739410 237.179016,252.855148 236.870224,253.703873 
	C236.337540,255.168076 235.355164,256.468689 234.561462,257.837921 
	C233.660706,256.714478 232.151749,255.686005 231.959076,254.451981 
	C230.807236,247.074890 229.964798,239.649643 229.003387,232.242523 
	C228.811127,230.761368 228.553085,229.288742 228.387207,227.439484 
z"/>
<path fill="#0A9043" opacity="1.000000" stroke="none" 
	d="
M221.974976,249.991058 
	C221.338333,243.600235 220.720093,237.657471 220.081558,231.716873 
	C219.754562,228.674561 220.230621,226.325012 224.675674,226.770538 
	C225.771301,236.042191 226.951385,245.368805 227.864243,254.721512 
	C227.960968,255.712662 226.490097,256.856812 225.746490,257.929993 
	C224.715225,257.074799 223.254959,256.413574 222.758759,255.316406 
	C222.104675,253.870102 222.207535,252.081482 221.974976,249.991058 
z"/>
<path fill="#0A8E42" opacity="1.000000" stroke="none" 
	d="
M212.952957,238.218597 
	C212.655930,235.290527 212.083603,232.810120 212.211319,230.366302 
	C212.266266,229.314819 213.772583,228.339188 214.619507,227.329102 
	C215.386261,228.254501 216.716949,229.115067 216.831924,230.115356 
	C217.904709,239.449966 218.768829,248.808563 219.706421,258.292175 
	C216.092804,259.547943 214.280273,258.719818 214.065079,255.048843 
	C213.745117,249.590118 213.333832,244.136749 212.952957,238.218597 
z"/>
<path fill="#0B8E42" opacity="1.000000" stroke="none" 
	d="
M178.043533,231.453537 
	C179.548752,230.113678 181.529541,228.365326 181.668610,231.433075 
	C182.051880,239.888336 181.801086,248.372345 181.801086,256.504913 
	C176.136215,252.814117 173.543594,238.529419 178.043533,231.453537 
z"/>
<path fill="#0A8E42" opacity="1.000000" stroke="none" 
	d="
M260.665649,230.598251 
	C262.299927,238.255325 263.390320,245.491760 258.698120,252.467758 
	C257.295624,242.521652 255.893112,232.575546 254.412354,222.074554 
	C258.854034,223.523651 259.325134,227.146378 260.665649,230.598251 
z"/>
<path fill="#0A8A41" opacity="1.000000" stroke="none" 
	d="
M173.728577,240.099426 
	C173.825836,242.553329 173.825836,244.658646 173.825836,246.763962 
	C173.389008,246.988022 172.952164,247.212082 172.515335,247.436142 
	C171.481110,245.453964 170.446869,243.471786 169.412628,241.489609 
	C170.818863,240.910019 172.225098,240.330414 173.728577,240.099426 
z"/>
<path fill="#8BC440" opacity="1.000000" stroke="none" 
	d="
M59.398602,210.332886 
	C66.589706,221.549881 78.122551,223.100388 89.401131,223.799362 
	C108.328392,224.972321 127.317886,225.258347 146.286865,225.557068 
	C150.962296,225.630692 152.475388,227.153229 152.010193,231.632889 
	C151.168579,239.737305 150.536560,247.864502 149.899185,255.988632 
	C149.649750,259.167877 147.983047,260.179901 144.951035,260.092438 
	C122.251617,259.437683 99.814301,257.037506 77.916710,250.652191 
	C72.896774,249.188385 69.209160,246.382004 67.640465,241.382629 
	C64.458389,231.241486 61.485046,221.034836 58.433327,210.852890 
	C58.389618,210.707062 58.386292,210.438400 58.466053,210.387833 
	C58.674095,210.255905 58.938835,210.213394 59.398602,210.332886 
z"/>
<path fill="#0B8F42" opacity="1.000000" stroke="none" 
	d="
M93.855705,169.122894 
	C86.583694,167.368744 80.425926,162.793869 73.028404,163.133942 
	C72.821251,163.721542 72.614098,164.309158 72.406944,164.896774 
	C85.550400,169.903671 98.693848,174.910583 111.837303,179.917496 
	C111.782684,180.288284 111.728065,180.659073 111.673447,181.029846 
	C106.804573,180.646515 101.786049,180.874344 97.103996,179.727982 
	C90.994987,178.232208 85.154778,175.641434 79.194313,173.534836 
	C76.727318,172.662933 74.019958,172.310699 73.724457,168.679840 
	C73.649460,167.758347 71.629486,166.882034 70.386200,166.197479 
	C68.842117,165.347275 67.176445,164.717865 64.989273,163.735199 
	C70.610214,159.409210 75.110313,155.850800 82.422935,159.396851 
	C89.404320,162.782318 97.139496,164.635452 104.585526,167.030975 
	C108.127113,168.170364 110.335686,170.196381 110.525490,175.248779 
	C104.813171,173.143188 99.520836,171.192413 93.855705,169.122894 
z"/>
<path fill="#0B8F43" opacity="1.000000" stroke="none" 
	d="
M93.571388,182.379196 
	C94.814400,182.973999 96.084312,183.199768 96.505905,183.921234 
	C97.155136,185.032242 97.883583,186.940002 97.373993,187.677460 
	C96.696121,188.658447 94.687500,189.535263 93.552559,189.251038 
	C86.806389,187.561584 80.156265,185.491867 73.449036,183.639832 
	C72.496605,183.376846 71.408981,183.603439 70.383926,183.603439 
	C70.244507,184.099380 70.105095,184.595322 69.965683,185.091278 
	C78.047470,187.809998 86.129265,190.528717 94.211052,193.247437 
	C94.024307,193.990540 93.837563,194.733643 93.650826,195.476730 
	C92.233215,195.396362 90.731400,195.591782 89.412239,195.188980 
	C82.900032,193.200546 76.465828,190.954330 69.941833,189.007812 
	C67.002129,188.130707 66.724777,186.578400 67.950333,184.175903 
	C68.780823,182.547821 69.666298,180.937592 70.352814,179.248520 
	C71.605537,176.166367 73.778702,175.420807 76.766014,176.464981 
	C82.251801,178.382477 87.734329,180.309311 93.571388,182.379196 
z"/>
<path fill="#0B8E43" opacity="1.000000" stroke="none" 
	d="
M63.098934,198.044617 
	C61.358871,200.989151 63.746330,201.396851 65.605667,202.026230 
	C71.589516,204.051788 77.597694,206.005493 83.580193,208.034943 
	C85.056992,208.535934 86.471992,209.219055 87.915405,209.818436 
	C87.809509,210.312271 87.703613,210.806107 87.597717,211.299942 
	C85.704895,211.022202 83.775925,210.891312 81.926750,210.436234 
	C78.057274,209.483963 74.254234,208.249512 70.365562,207.397156 
	C69.538475,207.215851 68.462364,208.170624 67.500984,208.601990 
	C68.196762,209.371994 68.757019,210.572037 69.610680,210.841019 
	C74.520317,212.388123 79.544388,213.581314 84.418716,215.223770 
	C85.446968,215.570251 86.012726,217.289276 86.791588,218.375885 
	C85.870178,218.891571 84.977242,219.792221 84.022903,219.862808 
	C75.405113,220.500259 64.758247,214.412720 61.363579,206.382629 
	C60.422234,204.155869 61.349010,201.139359 61.967411,198.246002 
	C62.710396,198.019409 62.904663,198.032013 63.098934,198.044617 
z"/>
<path fill="#0B9042" opacity="1.000000" stroke="none" 
	d="
M63.497223,198.045898 
	C62.904663,198.032013 62.710396,198.019409 62.223869,197.990234 
	C63.451294,191.252945 64.843956,190.425354 71.018852,192.576553 
	C76.171913,194.371765 81.257248,196.405014 86.497353,197.893600 
	C91.135330,199.211105 92.090492,201.417679 89.080917,205.653259 
	C80.775063,203.144867 72.335289,200.596039 63.497223,198.045898 
z"/>
<path fill="#0A8E42" opacity="1.000000" stroke="none" 
	d="
M90.545952,153.399323 
	C94.580482,155.077286 98.372284,156.397842 101.894333,158.235428 
	C103.622643,159.137131 104.850548,160.997971 106.304916,162.424744 
	C105.922997,162.951035 105.541077,163.477325 105.159157,164.003616 
	C97.328575,161.209747 89.498001,158.415863 81.301277,155.491348 
	C83.921036,151.839874 86.875450,151.795151 90.545952,153.399323 
z"/>
</svg>