<svg version="1.1" id="Layer_1" xmlns="http://www.w3.org/2000/svg" xmlns:xlink="http://www.w3.org/1999/xlink" x="0px" y="0px"
	 width="100%" viewBox="0 0 66 66" enable-background="new 0 0 66 66" xml:space="preserve">
<path fill="#038D4C" opacity="1.000000" stroke="none" 
	d="
M1.000000,45.000000 
	C1.000000,37.979053 1.000000,30.958105 1.356037,23.568880 
	C2.096325,22.895582 2.661590,22.671064 2.838295,22.273741 
	C7.004221,12.906574 13.461643,5.974706 23.391481,2.623240 
	C23.737526,2.506446 23.803493,1.559841 24.000000,1.000000 
	C30.021152,1.000000 36.042305,1.000000 42.434921,1.365579 
	C43.124340,2.089682 43.376957,2.650176 43.769791,2.777267 
	C54.296001,6.182752 61.359238,13.093897 65.071381,23.514997 
	C65.300240,24.157475 66.338387,24.511675 67.000000,25.000000 
	C67.000000,30.688040 67.000000,36.376080 66.634834,42.433998 
	C63.226364,47.577900 60.183060,52.351925 56.964775,56.826485 
	C53.729485,52.630020 48.918346,49.913410 49.520485,43.647835 
	C49.691879,41.864380 47.247444,39.829544 46.032631,37.546577 
	C50.002155,32.571804 48.724098,27.305311 47.854263,21.801289 
	C47.225296,20.362659 46.698284,19.225620 46.053429,17.758844 
	C43.681049,15.659421 41.426521,13.889732 38.970016,11.845697 
	C37.785084,11.225987 36.802132,10.880625 35.564804,10.328789 
	C34.491539,10.737607 33.672649,11.352898 32.656231,11.999276 
	C32.458702,12.030363 32.064354,12.098927 31.909290,11.848888 
	C30.796387,11.768712 29.838545,11.938574 28.534321,12.123953 
	C25.053545,14.021220 21.377638,15.567667 23.084780,20.643230 
	C23.138428,21.142290 23.146816,21.427500 22.760303,21.828871 
	C21.593254,22.816095 20.534798,23.562233 20.063330,24.580225 
	C17.659698,29.770163 20.297367,33.931046 22.773298,38.230694 
	C18.071737,44.309635 17.019468,52.332722 10.442543,56.825218 
	C8.124651,53.783798 6.110499,50.890320 3.978225,48.086678 
	C3.118674,46.956490 2.000484,46.023003 1.000000,45.000000 
z"/>
<path fill="#4B4A4E" opacity="1.000000" stroke="none" 
	d="
M10.698833,57.009247 
	C17.019468,52.332722 18.071737,44.309635 23.010677,38.491951 
	C24.378616,41.324085 24.782003,44.360565 26.207338,46.799911 
	C28.016701,49.896488 30.252941,53.136314 33.151363,54.994057 
	C34.186756,55.657684 37.689976,52.471031 40.343185,50.832336 
	C41.369293,48.437630 42.118996,46.252396 42.922134,43.712570 
	C43.984573,41.541981 44.993572,39.725983 46.002571,37.909985 
	C47.247444,39.829544 49.691879,41.864380 49.520485,43.647835 
	C48.918346,49.913410 53.729485,52.630020 56.784260,57.115730 
	C54.204346,59.472965 51.599499,61.199196 49.066132,63.024624 
	C47.326038,64.278442 45.685204,65.670006 44.000000,67.000000 
	C37.312355,67.000000 30.624710,67.000000 23.506905,66.643021 
	C18.950775,63.193775 14.824804,60.101513 10.698833,57.009247 
M25.056789,57.117287 
	C25.056789,57.117287 25.008234,56.994122 24.950050,56.880596 
	C24.950050,56.880596 24.994761,57.007622 25.056789,57.117287 
M34.935341,60.997269 
	C35.846989,60.706238 36.758636,60.415203 38.423424,59.883736 
	C34.328159,59.471790 31.200193,59.157143 28.072229,58.842499 
	C28.002258,59.162357 27.932285,59.482220 27.862314,59.802078 
	C29.973293,60.205055 32.084270,60.608028 34.935341,60.997269 
M42.497971,57.465244 
	C42.497971,57.465244 42.518974,57.515053 42.497971,57.465244 
M40.497894,58.534298 
	C40.497894,58.534298 40.475273,58.483528 40.497894,58.534298 
z"/>
<path fill="#303134" opacity="1.000000" stroke="none" 
	d="
M40.066776,51.041809 
	C37.689976,52.471031 34.186756,55.657684 33.151363,54.994057 
	C30.252941,53.136314 28.016701,49.896488 26.207338,46.799911 
	C24.782003,44.360565 24.378616,41.324085 23.283936,38.291576 
	C20.297367,33.931046 17.659698,29.770163 20.063330,24.580225 
	C20.534798,23.562233 21.593254,22.816095 22.727119,21.887352 
	C23.073256,21.830128 23.045799,21.955738 23.145742,22.182499 
	C23.454460,22.677263 23.717449,22.872095 24.252724,23.239933 
	C25.320086,23.684996 26.169373,23.883881 27.258093,24.255236 
	C28.058687,24.594252 28.619848,24.760799 29.409332,25.050674 
	C30.062086,25.461012 30.486517,25.748022 30.995617,26.288748 
	C31.124805,26.715137 31.169325,26.887812 31.233622,27.293550 
	C31.422731,27.808483 31.664749,27.997133 31.966097,28.061817 
	C31.952744,28.031071 31.903818,28.077400 31.937389,28.392817 
	C32.004101,29.129820 32.037235,29.551405 31.804077,30.153399 
	C31.031363,31.238218 30.524937,32.142632 30.096535,33.338585 
	C30.249275,33.816940 30.323994,34.003754 30.203819,34.362926 
	C29.679081,34.607506 29.349234,34.679722 28.991703,34.483162 
	C27.038891,32.401676 25.113760,30.588963 23.188629,28.776249 
	C22.750521,29.113773 22.312412,29.451298 21.874304,29.788820 
	C23.246347,31.524977 24.618393,33.261131 25.903084,35.281876 
	C27.011089,36.803505 28.129576,38.129280 29.424656,39.251209 
	C30.587948,40.258972 31.945250,41.042782 33.187164,42.262959 
	C33.429565,43.187431 33.701767,43.774326 33.965668,44.376183 
	C33.957371,44.391148 33.926460,44.409786 33.886295,44.815331 
	C33.854198,45.492443 33.862263,45.764011 33.572876,46.148453 
	C30.363504,48.509628 31.375736,50.033268 34.318977,50.723240 
	C36.158699,51.154518 38.145805,50.957108 40.066776,51.041809 
z"/>
<path fill="#1EB252" opacity="1.000000" stroke="none" 
	d="
M30.910946,26.035030 
	C30.486517,25.748022 30.062086,25.461012 29.323397,24.724476 
	C28.539392,23.522041 28.069647,22.769135 27.631390,21.829771 
	C27.386469,21.676676 27.110058,21.710039 26.806675,21.709488 
	C26.779701,21.675575 26.708187,21.724525 26.332973,21.750633 
	C25.188959,21.799221 24.420160,21.821699 23.495506,21.847836 
	C23.339651,21.851498 23.045799,21.955738 23.045799,21.955738 
	C23.045799,21.955738 23.073256,21.830128 23.106438,21.771648 
	C23.146816,21.427500 23.138428,21.142290 23.414246,20.508167 
	C25.744963,19.079639 27.775883,18.000483 30.120806,17.040127 
	C31.620853,18.107647 32.806896,19.056368 33.937347,20.181776 
	C33.904400,20.642895 33.920101,20.928467 33.966278,21.209028 
	C33.969170,21.226603 34.210499,21.204931 34.340900,21.201519 
	C34.228710,20.800207 34.116520,20.398897 34.019539,19.617767 
	C34.095085,15.850229 36.539333,16.016985 38.954254,16.338234 
	C40.727257,17.768042 42.407063,18.860664 43.843887,20.049379 
	C42.254230,20.665167 40.238316,21.113449 42.930073,22.586134 
	C43.834492,23.080950 45.099140,22.917355 46.184818,23.452206 
	C46.094254,25.173018 46.018009,26.496321 45.615772,27.698282 
	C42.049870,24.530155 39.107887,26.833799 36.063942,28.051535 
	C36.020401,28.014841 35.933361,27.941412 35.865582,27.631681 
	C34.168850,26.892977 32.539898,26.464005 30.910946,26.035030 
z"/>
<path fill="#2F3234" opacity="1.000000" stroke="none" 
	d="
M45.941765,27.819622 
	C46.018009,26.496321 46.094254,25.173018 46.407097,23.330500 
	C47.081203,22.575148 47.518715,22.339012 47.956223,22.102879 
	C48.724098,27.305311 50.002155,32.571804 46.032631,37.546577 
	C44.993572,39.725983 43.984573,41.541981 42.580013,43.791092 
	C40.092564,44.798584 38.000675,45.372963 35.904594,45.660580 
	C35.601742,44.922882 35.303085,44.471943 34.791725,43.835526 
	C34.416779,43.118225 34.254536,42.586399 34.377083,41.863968 
	C36.062347,40.910183 37.496269,40.201408 38.853153,39.367313 
	C40.022850,38.648293 41.104813,37.786537 42.517242,36.825687 
	C43.853207,33.715530 44.897488,30.767578 45.941765,27.819622 
z"/>
<path fill="#303535" opacity="1.000000" stroke="none" 
	d="
M29.806803,16.921326 
	C27.775883,18.000483 25.744963,19.079639 23.384575,20.293861 
	C21.377638,15.567667 25.053545,14.021220 28.573757,12.442612 
	C29.215328,13.531088 29.471081,14.316420 29.762245,15.403688 
	C29.800705,16.110859 29.803755,16.516092 29.806803,16.921326 
z"/>
<path fill="#2F3234" opacity="1.000000" stroke="none" 
	d="
M44.086864,19.953289 
	C42.407063,18.860664 40.727257,17.768042 38.996792,16.004910 
	C38.917599,14.888190 38.889065,14.441977 38.922333,13.685063 
	C39.046749,12.956257 39.109371,12.538150 39.171993,12.120045 
	C41.426521,13.889732 43.681049,15.659421 45.954857,18.051880 
	C45.345047,19.100864 44.715958,19.527077 44.086864,19.953289 
z"/>
<path fill="#1EB152" opacity="1.000000" stroke="none" 
	d="
M43.843887,20.049381 
	C44.715958,19.527077 45.345047,19.100864 46.072704,18.381617 
	C46.698284,19.225620 47.225296,20.362659 47.854263,21.801289 
	C47.518715,22.339012 47.081203,22.575148 46.421417,22.932989 
	C45.099140,22.917355 43.834492,23.080950 42.930073,22.586134 
	C40.238316,21.113449 42.254230,20.665167 43.843887,20.049381 
z"/>
<path fill="#E5E5E5" opacity="1.000000" stroke="none" 
	d="
M32.853760,11.968189 
	C33.672649,11.352898 34.491539,10.737607 35.555260,10.656044 
	C35.967297,11.840825 36.134499,12.491880 36.197876,13.458073 
	C35.310726,14.295359 34.527393,14.817509 33.487823,14.973707 
	C33.105640,13.727900 32.979702,12.848043 32.853760,11.968189 
z"/>
<path fill="#1EB252" opacity="1.000000" stroke="none" 
	d="
M29.726833,15.101751 
	C29.471081,14.316420 29.215328,13.531088 28.920139,12.427095 
	C29.838545,11.938574 30.796387,11.768712 31.888264,12.203442 
	C32.025513,13.522402 32.028725,14.236772 31.647942,14.976213 
	C30.751577,15.034773 30.239206,15.068262 29.726833,15.101751 
z"/>
<path fill="#1EB252" opacity="1.000000" stroke="none" 
	d="
M36.301697,13.142935 
	C36.134499,12.491880 35.967297,11.840825 35.809639,10.862516 
	C36.802132,10.880625 37.785084,11.225987 38.970016,11.845696 
	C39.109371,12.538150 39.046749,12.956257 38.655304,13.633960 
	C37.651550,13.643349 36.976627,13.393142 36.301697,13.142935 
z"/>
<path fill="#6F6E71" opacity="1.000000" stroke="none" 
	d="
M32.031933,14.951140 
	C32.028725,14.236772 32.025513,13.522402 32.043327,12.453480 
	C32.064354,12.098927 32.458702,12.030363 32.656231,11.999275 
	C32.979702,12.848043 33.105640,13.727900 33.049988,14.891401 
	C32.589577,15.100412 32.310757,15.025776 32.031933,14.951140 
z"/>
<path fill="#262529" opacity="1.000000" stroke="none" 
	d="
M35.908783,45.947342 
	C38.000675,45.372963 40.092564,44.798584 42.526577,44.145683 
	C42.118996,46.252396 41.369293,48.437630 40.343185,50.832336 
	C38.145805,50.957108 36.158699,51.154518 34.318977,50.723240 
	C31.375736,50.033268 30.363504,48.509628 33.914001,46.148670 
	C35.004642,46.006458 35.456715,45.976898 35.908783,45.947342 
z"/>
<path fill="#39373C" opacity="1.000000" stroke="none" 
	d="
M34.565292,61.004135 
	C32.084270,60.608028 29.973293,60.205055 27.862314,59.802078 
	C27.932285,59.482220 28.002258,59.162357 28.072229,58.842499 
	C31.200193,59.157143 34.328159,59.471790 38.423424,59.883736 
	C36.758636,60.415203 35.846989,60.706238 34.565292,61.004135 
z"/>
<path fill="#39373C" opacity="1.000000" stroke="none" 
	d="
M24.994761,57.007622 
	C24.994761,57.007622 24.950050,56.880596 24.975090,56.940277 
	C25.000128,56.999958 24.994761,57.007622 24.994761,57.007622 
z"/>
<path fill="#39373C" opacity="1.000000" stroke="none" 
	d="
M25.004181,56.997040 
	C25.008234,56.994122 25.056789,57.117287 25.025776,57.062454 
	C24.994761,57.007622 25.000128,56.999958 25.004181,56.997040 
z"/>
<path fill="#39373C" opacity="1.000000" stroke="none" 
	d="
M42.508472,57.490150 
	C42.518974,57.515053 42.497971,57.465244 42.508472,57.490150 
z"/>
<path fill="#39373C" opacity="1.000000" stroke="none" 
	d="
M40.486584,58.508911 
	C40.475273,58.483528 40.497894,58.534298 40.486584,58.508911 
z"/>
<path fill="#1FA950" opacity="1.000000" stroke="none" 
	d="
M42.225563,36.987888 
	C41.104813,37.786537 40.022850,38.648293 38.853153,39.367313 
	C37.496269,40.201408 36.062347,40.910183 34.159458,41.822792 
	C33.657047,41.972221 33.216969,41.925381 33.216969,41.925381 
	C31.945250,41.042782 30.587948,40.258972 29.424656,39.251209 
	C28.129576,38.129280 27.011089,36.803505 26.281340,35.246895 
	C27.504429,34.868866 28.261906,34.810402 29.019384,34.751938 
	C29.349234,34.679722 29.679081,34.607506 30.349781,34.337135 
	C30.690634,34.138977 30.971909,34.036037 31.307236,34.039764 
	C32.088230,34.019638 32.533901,33.995789 33.143036,34.088955 
	C33.582512,34.195362 33.858524,34.184750 34.134537,34.174137 
	C33.792763,33.788521 33.450989,33.402908 33.093193,32.759293 
	C33.098434,32.330273 33.119698,32.159260 33.606529,31.928411 
	C34.978062,31.629993 35.884026,31.391409 36.768661,31.336483 
	C36.747334,31.520142 36.392830,31.599154 36.337929,31.911991 
	C37.196171,32.813171 38.109306,33.401516 39.318695,34.141884 
	C40.485149,35.191902 41.355354,36.089893 42.225563,36.987888 
z"/>
<path fill="#2F3935" opacity="1.000000" stroke="none" 
	d="
M28.991703,34.483162 
	C28.261906,34.810402 27.504429,34.868866 26.368694,34.962311 
	C24.618393,33.261131 23.246347,31.524977 21.874304,29.788820 
	C22.312412,29.451298 22.750521,29.113773 23.188629,28.776249 
	C25.113760,30.588963 27.038891,32.401676 28.991703,34.483162 
z"/>
<path fill="#1EB252" opacity="1.000000" stroke="none" 
	d="
M36.789993,31.152824 
	C35.884026,31.391409 34.978062,31.629993 33.524715,31.643951 
	C32.675011,30.937216 32.372692,30.455103 32.070370,29.972992 
	C32.037235,29.551405 32.004101,29.129820 32.341591,28.375233 
	C33.785931,28.008625 34.859646,27.975019 35.933361,27.941414 
	C35.933361,27.941412 36.020401,28.014841 36.028702,28.369701 
	C36.010273,29.150599 35.983547,29.576633 35.790703,30.059977 
	C35.895023,30.393173 36.165459,30.669060 36.554260,30.946091 
	C36.672623,30.947233 36.789993,31.152826 36.789993,31.152824 
z"/>
<path fill="#1EB152" opacity="1.000000" stroke="none" 
	d="
M35.865582,27.631683 
	C34.859646,27.975019 33.785931,28.008625 32.308018,28.059816 
	C31.903818,28.077400 31.952744,28.031071 31.855377,27.877045 
	C31.599337,27.483515 31.417950,27.262672 31.213846,27.060488 
	C31.169325,26.887812 31.124805,26.715137 30.995617,26.288748 
	C32.539898,26.464005 34.168850,26.892977 35.865582,27.631683 
z"/>
<path fill="#2F3935" opacity="1.000000" stroke="none" 
	d="
M31.804077,30.153399 
	C32.372692,30.455103 32.675011,30.937216 33.059151,31.703785 
	C33.119698,32.159260 33.098434,32.330273 33.034645,32.994392 
	C32.992123,33.487499 32.979568,33.971935 32.979568,33.971935 
	C32.533901,33.995789 32.088230,34.019638 31.194862,33.833767 
	C30.550001,33.373966 30.307117,33.181633 30.018513,33.047043 
	C30.524937,32.142632 31.031363,31.238218 31.804077,30.153399 
z"/>
<path fill="#2F3935" opacity="1.000000" stroke="none" 
	d="
M27.599903,22.016228 
	C28.069647,22.769135 28.539392,23.522041 29.095072,24.601147 
	C28.619848,24.760799 28.058687,24.594252 27.275988,23.899620 
	C27.057585,23.134451 27.060724,22.897364 26.981617,22.425810 
	C26.835644,22.035736 26.771915,21.880131 26.708187,21.724525 
	C26.708187,21.724525 26.779701,21.675575 26.994473,21.791351 
	C27.209244,21.907125 27.599903,22.016228 27.599903,22.016228 
z"/>
<path fill="#248447" opacity="1.000000" stroke="none" 
	d="
M27.063864,22.660278 
	C27.060724,22.897364 27.057585,23.134451 27.036552,23.727150 
	C26.169373,23.883881 25.320086,23.684996 24.233906,23.242432 
	C23.997013,22.998753 23.989908,23.035313 24.378466,23.036961 
	C25.532637,22.912498 26.298250,22.786388 27.063864,22.660278 
z"/>
<path fill="#238A49" opacity="1.000000" stroke="none" 
	d="
M35.904594,45.660580 
	C35.456715,45.976898 35.004642,46.006458 34.211452,46.035797 
	C33.862263,45.764011 33.854198,45.492443 34.101181,44.866928 
	C34.658253,44.432823 34.884422,44.255733 35.024715,43.989784 
	C35.014698,43.997852 35.004425,44.021008 35.004425,44.021008 
	C35.303085,44.471943 35.601742,44.922882 35.904594,45.660580 
z"/>
<path fill="#238A49" opacity="1.000000" stroke="none" 
	d="
M33.187164,42.262959 
	C33.216969,41.925381 33.657047,41.972221 33.874672,42.013397 
	C34.254536,42.586399 34.416779,43.118225 34.791725,43.835526 
	C35.004425,44.021008 35.014698,43.997852 34.734589,44.015003 
	C34.294308,44.141842 34.134136,44.251530 33.973969,44.361221 
	C33.701767,43.774326 33.429565,43.187431 33.187164,42.262959 
z"/>
<path fill="#257945" opacity="1.000000" stroke="none" 
	d="
M23.145742,22.182499 
	C23.045799,21.955738 23.339651,21.851498 23.600006,22.140459 
	C23.903543,22.631384 23.946726,22.833349 23.989908,23.035313 
	C23.989908,23.035313 23.997013,22.998753 24.015831,22.996254 
	C23.717449,22.872095 23.454460,22.677263 23.145742,22.182499 
z"/>
<path fill="#2F3234" opacity="1.000000" stroke="none" 
	d="
M33.965668,44.376183 
	C34.134136,44.251530 34.294308,44.141842 34.744606,44.006935 
	C34.884422,44.255733 34.658253,44.432823 34.141342,44.461380 
	C33.926460,44.409786 33.957371,44.391148 33.965668,44.376183 
z"/>
<path fill="#267945" opacity="1.000000" stroke="none" 
	d="
M30.096535,33.338585 
	C30.307117,33.181633 30.550001,33.373966 30.859535,33.830040 
	C30.971909,34.036037 30.690634,34.138977 30.544672,34.164772 
	C30.323994,34.003754 30.249275,33.816940 30.096535,33.338585 
z"/>
<path fill="#1EB252" opacity="1.000000" stroke="none" 
	d="
M31.233622,27.293550 
	C31.417950,27.262672 31.599337,27.483515 31.868729,27.907789 
	C31.664749,27.997133 31.422731,27.808483 31.233622,27.293550 
z"/>
<path fill="#2F3334" opacity="1.000000" stroke="none" 
	d="
M35.956818,30.002668 
	C35.983547,29.576633 36.010273,29.150599 36.072243,28.406395 
	C39.107887,26.833799 42.049870,24.530155 45.615768,27.698282 
	C44.897488,30.767578 43.853207,33.715530 42.517242,36.825687 
	C41.355354,36.089893 40.485149,35.191902 39.271866,33.789856 
	C38.083469,32.723591 37.238152,32.161373 36.392830,31.599154 
	C36.392830,31.599154 36.747334,31.520142 36.768661,31.336483 
	C36.789993,31.152826 36.672623,30.947233 36.475838,30.689686 
	C36.171642,30.288982 36.064228,30.145824 35.956818,30.002668 
z"/>
<path fill="#1EB152" opacity="1.000000" stroke="none" 
	d="
M31.647942,14.976213 
	C32.310757,15.025776 32.589577,15.100412 33.306229,15.257353 
	C34.527393,14.817509 35.310726,14.295359 36.197876,13.458072 
	C36.976627,13.393142 37.651550,13.643349 38.593506,13.944659 
	C38.889065,14.441977 38.917599,14.888190 38.903595,15.667727 
	C36.539333,16.016985 34.095085,15.850229 34.017242,19.619068 
	C33.999744,20.000183 33.992943,20.005087 33.992943,20.005087 
	C32.806896,19.056368 31.620853,18.107647 30.120806,17.040127 
	C29.803755,16.516092 29.800705,16.110859 29.762245,15.403688 
	C30.239206,15.068262 30.751577,15.034773 31.647942,14.976213 
z"/>
<path fill="#1EB152" opacity="1.000000" stroke="none" 
	d="
M34.002037,19.998884 
	C34.116520,20.398897 34.228710,20.800207 34.340900,21.201519 
	C34.210499,21.204931 33.969170,21.226603 33.966278,21.209028 
	C33.920101,20.928467 33.904400,20.642895 33.937347,20.181776 
	C33.992943,20.005087 33.999744,20.000183 34.002037,19.998884 
z"/>
<path fill="#2E3F37" opacity="1.000000" stroke="none" 
	d="
M24.378466,23.036961 
	C23.946726,22.833349 23.903543,22.631384 23.755861,22.136799 
	C24.420160,21.821699 25.188959,21.799221 26.332973,21.750633 
	C26.771915,21.880131 26.835644,22.035736 26.981617,22.425810 
	C26.298250,22.786388 25.532637,22.912498 24.378466,23.036961 
z"/>
<path fill="#2E3F37" opacity="1.000000" stroke="none" 
	d="
M27.631390,21.829771 
	C27.599903,22.016228 27.209244,21.907125 27.021446,21.825264 
	C27.110058,21.710039 27.386469,21.676676 27.631390,21.829771 
z"/>
<path fill="#1EB252" opacity="1.000000" stroke="none" 
	d="
M36.337929,31.911991 
	C37.238152,32.161373 38.083469,32.723591 38.975616,33.637833 
	C38.109306,33.401516 37.196171,32.813171 36.337929,31.911991 
z"/>
<path fill="#1EB152" opacity="1.000000" stroke="none" 
	d="
M33.143036,34.088955 
	C32.979568,33.971935 32.992123,33.487499 33.050667,33.252396 
	C33.450989,33.402908 33.792763,33.788521 34.134537,34.174137 
	C33.858524,34.184750 33.582512,34.195362 33.143036,34.088955 
z"/>
<path fill="#1EB152" opacity="1.000000" stroke="none" 
	d="
M35.790703,30.059977 
	C36.064228,30.145824 36.171642,30.288982 36.357475,30.688545 
	C36.165459,30.669060 35.895023,30.393173 35.790703,30.059977 
z"/>
</svg>