<svg width="100%" viewBox="0 0 360 174" fill="none" xmlns="http://www.w3.org/2000/svg">
<g opacity="0.7">
<g opacity="0.3">
<path d="M193.034 60.7912L184.524 73.7799L182.648 72.5506L191.157 59.5619C190.024 58.0397 190.082 55.5571 191.468 53.4411C193.131 50.8882 196.066 49.863 198.009 51.136C199.965 52.4177 200.198 55.518 198.521 58.0621C197.135 60.1781 194.882 61.2221 193.034 60.7912Z" fill="white"/>
</g>
<g opacity="0.3" clip-path="url(#clip0_6_2394)">
<path d="M302.684 29.5495L309.017 41.206L307.333 42.121L301 30.4645C299.396 30.7017 297.551 29.6546 296.519 27.7556C295.27 25.4718 295.686 22.8483 297.429 21.9009C299.185 20.9469 301.612 22.0258 302.849 24.3162C303.881 26.2152 303.755 28.333 302.684 29.5495Z" fill="white"/>
</g>
<g opacity="0.3" clip-path="url(#clip1_6_2394)">
<path d="M116.503 69.4667C117.268 68.75 118.462 68.7916 119.176 69.5537L121.332 71.8542L113.97 78.752L111.815 76.4515C111.101 75.6894 111.137 74.4945 111.902 73.7778L116.503 69.4667ZM115.015 87.2449C114.175 86.3477 113.929 85.0438 114.387 83.9017L115.172 81.9249C115.527 81.0381 116.074 80.2368 116.77 79.5848L121.981 74.7024C122.677 74.0504 123.511 73.5573 124.42 73.2595L126.443 72.6061C127.564 72.2689 128.898 72.5521 129.739 73.4493C130.515 74.2775 130.763 75.4064 130.489 76.4291C131.625 76.3155 132.794 76.7104 133.587 77.5558C134.535 78.5681 134.838 79.8716 134.506 81.015C135.765 80.8608 137.046 81.2482 137.898 82.157C138.846 83.1692 139.149 84.4727 138.865 85.6679C140.076 85.462 141.357 85.8494 142.257 86.8099C143.157 87.7703 143.461 89.0739 143.176 90.269C144.387 90.0631 145.668 90.4505 146.568 91.411C147.996 92.9351 147.919 95.3303 146.394 96.7583L137.192 105.381C135.667 106.809 133.273 106.731 131.845 105.207C130.945 104.246 130.643 102.941 130.923 101.75C129.716 101.952 128.434 101.566 127.534 100.605C126.634 99.6449 126.332 98.3403 126.612 97.1484C125.405 97.3511 124.123 96.9648 123.174 95.9525C122.323 95.0438 122.02 93.7392 122.253 92.4955C121.094 92.75 119.811 92.3637 118.863 91.3514C118.071 90.506 117.753 89.3135 117.938 88.1893C116.903 88.392 115.791 88.0731 115.015 87.2449ZM125.237 88.9325L130.758 83.7592C131.265 83.2849 131.291 82.4828 130.816 81.9767C130.342 81.4706 129.54 81.4445 129.034 81.9187L123.513 87.0921C123.006 87.5663 122.98 88.3684 123.455 88.8745C123.929 89.3806 124.731 89.4067 125.237 88.9325ZM130.41 94.4539C129.904 94.9281 129.878 95.7302 130.352 96.2363C130.827 96.7424 131.629 96.7685 132.135 96.2943L137.656 91.121C138.162 90.6468 138.188 89.8446 137.714 89.3385C137.24 88.8324 136.438 88.8063 135.932 89.2805L130.41 94.4539Z" fill="white"/>
</g>
<g opacity="0.3" clip-path="url(#clip2_6_2394)">
<path d="M332.403 98.7974C333.903 99.183 334.799 100.706 334.415 102.201L333.255 106.713L318.816 103.003L319.975 98.4904C320.359 96.9956 321.878 96.093 323.378 96.4785L332.403 98.7974ZM309.053 111.041C309.506 109.281 310.937 107.942 312.725 107.607L315.812 107.017C317.199 106.757 318.633 106.804 319.998 107.155L330.218 109.781C331.583 110.132 332.86 110.781 333.952 111.678L336.371 113.683C337.68 114.813 338.385 116.702 337.933 118.462C337.516 120.086 336.305 121.29 334.813 121.761C335.855 123.087 336.29 124.858 335.864 126.517C335.354 128.502 333.969 129.914 332.279 130.406C333.47 131.854 334.003 133.759 333.545 135.542C333.035 137.527 331.65 138.939 329.934 139.532C331.151 140.879 331.684 142.784 331.2 144.668C330.716 146.552 329.331 147.964 327.615 148.557C328.832 149.904 329.365 151.809 328.881 153.693C328.113 156.683 325.064 158.485 322.075 157.717L304.025 153.079C301.034 152.31 299.233 149.262 300.001 146.272C300.485 144.389 301.872 142.977 303.581 142.382C302.371 141.037 301.836 139.131 302.32 137.248C302.804 135.364 304.191 133.952 305.9 133.357C304.69 132.012 304.155 130.107 304.665 128.121C305.123 126.339 306.51 124.927 308.245 124.231C307.009 122.987 306.474 121.082 306.984 119.096C307.41 117.438 308.645 116.095 310.194 115.435C309.12 114.305 308.636 112.666 309.053 111.041ZM315.055 125.126L325.885 127.909C326.878 128.164 327.899 127.561 328.154 126.568C328.409 125.575 327.805 124.554 326.813 124.299L315.983 121.517C314.99 121.261 313.969 121.865 313.714 122.858C313.459 123.85 314.062 124.871 315.055 125.126ZM312.272 135.956C311.28 135.701 310.259 136.305 310.004 137.298C309.749 138.29 310.352 139.311 311.345 139.566L322.175 142.349C323.168 142.604 324.188 142.001 324.444 141.008C324.699 140.015 324.095 138.994 323.102 138.739L312.272 135.956Z" fill="white"/>
</g>
<g opacity="0.3" clip-path="url(#clip3_6_2394)">
<path d="M70.8318 22.5748C71.8214 23.145 72.1566 24.4036 71.5885 25.3894L69.8736 28.3656L60.35 22.8778L62.0649 19.9016C62.633 18.9158 63.89 18.5747 64.8795 19.1449L70.8318 22.5748ZM51.8281 26.6591C52.497 25.4984 53.7784 24.8294 55.1141 24.945L57.4234 25.1359C58.4603 25.225 59.4691 25.5417 60.3693 26.0604L67.1103 29.9448C68.0106 30.4635 68.7889 31.1767 69.3874 32.03L70.7098 33.9317C71.4164 34.993 71.5442 36.474 70.8754 37.6347C70.258 38.7061 69.1598 39.322 68.0072 39.3615C68.4856 40.5093 68.4445 41.8533 67.8142 42.9471C67.0597 44.2566 65.797 44.9859 64.4996 45.0014C65.0596 46.2656 65.0618 47.7238 64.3844 48.8993C63.6298 50.2088 62.3671 50.9381 61.0312 51.0207C61.6297 52.2179 61.6319 53.676 60.9159 54.9186C60.1999 56.1611 58.9373 56.8904 57.6013 56.9729C58.1998 58.1702 58.202 59.6283 57.486 60.8708C56.3499 62.8425 53.8284 63.5204 51.8568 62.3843L39.9522 55.5245C37.9798 54.388 37.3026 51.8669 38.4388 49.8953C39.1548 48.6527 40.4189 47.9243 41.7504 47.8392C41.1563 46.6445 41.1527 45.1855 41.8686 43.943C42.5846 42.7004 43.8488 41.972 45.1803 41.8869C44.5862 40.6923 44.5825 39.2332 45.3371 37.9237C46.0145 36.7482 47.2787 36.0197 48.6487 35.8677C48.0161 34.74 48.0124 33.281 48.767 31.9715C49.3972 30.8777 50.5395 30.1682 51.7701 30.0052C51.2308 28.9908 51.2108 27.7305 51.8281 26.6591ZM53.3087 37.8492L60.4514 41.9651C61.1062 42.3423 61.9506 42.1153 62.3279 41.4606C62.7052 40.8058 62.4781 39.9614 61.8234 39.5842L54.6807 35.4683C54.0259 35.091 53.1815 35.318 52.8042 35.9728C52.4269 36.6275 52.654 37.4719 53.3087 37.8492ZM49.1929 44.9919C48.5381 44.6147 47.6937 44.8417 47.3164 45.4964C46.9392 46.1512 47.1662 46.9956 47.8209 47.3729L54.9636 51.4887C55.6184 51.866 56.4628 51.639 56.8401 50.9842C57.2174 50.3295 56.9903 49.4851 56.3356 49.1078L49.1929 44.9919Z" fill="white"/>
</g>
<g opacity="0.3" clip-path="url(#clip4_6_2394)">
<path d="M23.3979 27.188L17.2197 16.487C17.0832 16.2505 17.0462 15.9695 17.1169 15.7057C17.1875 15.4419 17.3601 15.217 17.5966 15.0804L31.8646 6.84284C32.1011 6.7063 32.3821 6.6693 32.6459 6.73998C32.9097 6.81066 33.1346 6.98324 33.2712 7.21974L41.5088 21.4877C41.9184 22.1972 42.0294 23.0404 41.8174 23.8318C41.6053 24.6231 41.0876 25.2978 40.3781 25.7075L27.8936 32.9154C27.1841 33.325 26.3409 33.436 25.5496 33.224C24.7582 33.0119 24.0835 32.4942 23.6738 31.7847L22.6441 30.0012L36.9121 21.7636L37.9418 23.5471C38.0783 23.7836 38.3032 23.9562 38.567 24.0269C38.8308 24.0975 39.1119 24.0605 39.3484 23.924C39.5849 23.7874 39.7575 23.5625 39.8282 23.2987C39.8988 23.035 39.8618 22.7539 39.7253 22.5174L37.6659 18.9504L23.3979 27.188Z" fill="white"/>
</g>
<g opacity="0.3" clip-path="url(#clip5_6_2394)">
<path d="M141.216 56.4083L151.98 39.8343C152.218 39.468 152.592 39.2112 153.019 39.1204C153.446 39.0296 153.892 39.1122 154.258 39.3501L176.357 53.7018C176.723 53.9397 176.98 54.3134 177.071 54.7406C177.162 55.1678 177.079 55.6136 176.841 55.9799L162.489 78.0786C161.776 79.1775 160.655 79.9479 159.373 80.2204C158.091 80.4928 156.754 80.2449 155.655 79.5312L136.319 66.9735C135.22 66.2598 134.449 65.1388 134.177 63.8571C133.905 62.5754 134.152 61.2379 134.866 60.139L136.66 57.3767L158.759 71.7284L156.965 74.4907C156.727 74.857 156.644 75.3028 156.735 75.73C156.826 76.1573 157.083 76.5309 157.449 76.7688C157.815 77.0067 158.261 77.0894 158.688 76.9986C159.116 76.9078 159.489 76.651 159.727 76.2847L163.315 70.76L141.216 56.4083Z" fill="white"/>
</g>
<g opacity="0.3" clip-path="url(#clip6_6_2394)">
<path d="M318.004 73.9398L307.663 59.1741C307.435 58.8477 307.345 58.4439 307.415 58.0516C307.484 57.6592 307.706 57.3104 308.032 57.0819L327.72 43.2945C328.046 43.066 328.45 42.9765 328.842 43.0456C329.235 43.1148 329.584 43.337 329.812 43.6633L343.6 63.351C344.285 64.3301 344.554 65.5414 344.346 66.7184C344.139 67.8955 343.472 68.942 342.493 69.6276L325.266 81.6915C324.287 82.3771 323.076 82.6457 321.899 82.4383C320.722 82.2308 319.675 81.5642 318.99 80.5852L317.266 78.1242L336.954 64.3369L338.678 66.7979C338.906 67.1242 339.255 67.3464 339.647 67.4156C340.04 67.4847 340.443 67.3952 340.77 67.1666C341.096 66.9381 341.318 66.5893 341.387 66.1969C341.457 65.8045 341.367 65.4008 341.139 65.0744L337.692 60.1525L318.004 73.9398Z" fill="white"/>
</g>
<g opacity="0.3">
<path d="M32.3908 47.6096L27.3908 42.6096C27.1479 42.4102 26.8396 42.3084 26.5258 42.3238C26.2119 42.3392 25.9151 42.4708 25.6929 42.693C25.4707 42.9151 25.3391 43.212 25.3237 43.5258C25.3083 43.8396 25.4102 44.148 25.6095 44.3908L25.8439 44.6096L17.2345 51.0783L11.2501 52.2814C11.0105 52.3298 10.7888 52.4433 10.6095 52.6096L-2.60924 65.8439C-2.96072 66.1913 -3.23977 66.6049 -3.43023 67.0609C-3.62068 67.5168 -3.71875 68.0061 -3.71875 68.5002C-3.71875 68.9943 -3.62068 69.4836 -3.43023 69.9395C-3.23977 70.3955 -2.96072 70.8091 -2.60924 71.1564L3.84389 77.6096C4.19122 77.9611 4.60485 78.2401 5.06081 78.4306C5.51677 78.621 6.006 78.7191 6.50014 78.7191C6.99428 78.7191 7.48351 78.621 7.93947 78.4306C8.39543 78.2401 8.80906 77.9611 9.15639 77.6096L22.3908 64.3908C22.557 64.2116 22.6706 63.9899 22.7189 63.7502L23.922 57.7658L30.3908 49.1564L30.6095 49.3908C30.8484 49.6218 31.1678 49.751 31.5001 49.751C31.8325 49.751 32.1518 49.6218 32.3908 49.3908C32.6255 49.1538 32.7572 48.8338 32.7572 48.5002C32.7572 48.1666 32.6255 47.8466 32.3908 47.6096ZM5.60952 75.8439L-0.84361 69.3908C-0.961716 69.2745 -1.05551 69.1359 -1.11953 68.983C-1.18355 68.8301 -1.21652 68.666 -1.21652 68.5002C-1.21652 68.3344 -1.18355 68.1703 -1.11953 68.0174C-1.05551 67.8645 -0.961716 67.7259 -0.84361 67.6096L0.25014 66.5158L8.48451 74.7502L7.39076 75.8439C7.15377 76.0787 6.8337 76.2104 6.50014 76.2104C6.16658 76.2104 5.84651 76.0787 5.60952 75.8439ZM21.7501 56.5002C21.6426 56.6495 21.568 56.8199 21.5314 57.0002L20.3439 62.8908L19.0001 64.2346L10.7658 56.0002L12.1095 54.6564L18.0001 53.4689C18.1804 53.4323 18.3509 53.3578 18.5001 53.2502L27.6251 46.4064L28.5939 47.3752L21.7501 56.5002Z" fill="white"/>
</g>
<g opacity="0.3" clip-path="url(#clip7_6_2394)">
<path d="M37.8022 65.7693L28.8063 71.0176C28.4313 71.2889 28.1707 71.6899 28.075 72.1427C27.9794 72.5955 28.0555 73.0677 28.2887 73.4674C28.5219 73.8671 28.8955 74.1658 29.3367 74.3054C29.778 74.4449 30.2553 74.4154 30.676 74.2225L31.0754 73.9706L37.0632 88.6582L36.5342 97.6334C36.5132 97.9929 36.5919 98.3513 36.7615 98.6689L50.659 122.458C51.022 123.089 51.5066 123.641 52.0847 124.083C52.6628 124.525 53.3229 124.849 54.0268 125.034C54.7306 125.219 55.4643 125.263 56.1851 125.162C56.906 125.062 57.5998 124.819 58.2262 124.449L69.8366 117.675C70.4674 117.312 71.0199 116.828 71.4621 116.249C71.9043 115.671 72.2273 115.011 72.4125 114.307C72.5977 113.603 72.6413 112.87 72.5409 112.149C72.4405 111.428 72.198 110.734 71.8275 110.108L57.9582 86.3026C57.7652 85.9986 57.4919 85.7538 57.1686 85.5951L49.0952 81.6386L39.2561 69.1979L39.6719 68.9741C40.0905 68.7204 40.3942 68.3139 40.5187 67.8405C40.6433 67.3671 40.579 66.8638 40.3395 66.4369C40.0899 66.0137 39.6833 65.7062 39.2082 65.5812C38.733 65.4562 38.2278 65.5238 37.8022 65.7693ZM67.9833 114.498L56.3729 121.272C56.163 121.397 55.9303 121.478 55.6885 121.512C55.4468 121.546 55.2006 121.532 54.9645 121.469C54.7284 121.407 54.507 121.299 54.3132 121.15C54.1194 121.002 53.9571 120.816 53.8357 120.605L52.6876 118.637L67.5028 109.993L68.6509 111.961C68.8964 112.387 68.964 112.892 68.839 113.367C68.714 113.842 68.4065 114.249 67.9833 114.498ZM46.4785 84.258C46.6508 84.4672 46.8657 84.6372 47.1087 84.757L55.0545 88.6561L56.4649 91.0737L41.6497 99.717L40.2393 97.2994L40.7554 88.4636C40.7708 88.193 40.7284 87.9223 40.6311 87.6694L34.3025 72.1067L36.0454 71.0899L46.4785 84.258Z" fill="white"/>
</g>
<g opacity="0.3" clip-path="url(#clip8_6_2394)">
<path d="M329.636 6.47629L322.79 14.3252C322.522 14.7021 322.403 15.1654 322.457 15.625C322.511 16.0846 322.734 16.5076 323.083 16.8118C323.432 17.116 323.881 17.2796 324.344 17.2708C324.807 17.2619 325.25 17.0813 325.586 16.764L325.884 16.3977L336.254 28.4002L338.622 37.0735C338.717 37.4208 338.906 37.7352 339.168 37.982L359.942 56.0793C360.487 56.561 361.123 56.9295 361.812 57.1637C362.501 57.3978 363.23 57.4929 363.956 57.4433C364.682 57.3937 365.391 57.2006 366.042 56.875C366.693 56.5494 367.273 56.0978 367.748 55.5465L376.584 45.4165C377.065 44.8709 377.434 44.2351 377.668 43.5459C377.902 42.8568 377.997 42.128 377.948 41.4019C377.898 40.6758 377.705 39.9667 377.379 39.3158C377.054 38.6649 376.602 38.085 376.051 37.6099L355.299 19.488C355.019 19.2617 354.682 19.1171 354.325 19.0701L345.41 17.9023L332.11 9.26011L332.432 8.91515C332.748 8.54089 332.906 8.05866 332.872 7.57027C332.839 7.08189 332.617 6.62557 332.254 6.29764C331.882 5.97648 331.398 5.81509 330.908 5.84854C330.418 5.88199 329.961 6.1076 329.636 6.47629ZM373.812 42.999L364.977 53.129C364.818 53.3142 364.623 53.466 364.405 53.5754C364.187 53.6848 363.949 53.7497 363.705 53.7663C363.462 53.7829 363.217 53.751 362.986 53.6722C362.755 53.5935 362.542 53.4696 362.359 53.3077L360.642 51.8101L371.917 38.884L373.634 40.3815C374.002 40.7062 374.228 41.1634 374.261 41.6535C374.295 42.1437 374.133 42.6272 373.812 42.999ZM343.768 21.2208C343.998 21.3639 344.256 21.4564 344.525 21.4921L353.3 22.6463L355.409 24.4861L344.135 37.4123L342.026 35.5724L339.69 27.0354C339.618 26.7741 339.491 26.5311 339.318 26.3226L328.346 13.6L329.673 12.0792L343.768 21.2208Z" fill="white"/>
</g>
<g opacity="0.3" clip-path="url(#clip9_6_2394)">
<path d="M266.528 47.9517L263.396 44.9844C263.244 44.8668 263.054 44.8098 262.863 44.8243C262.672 44.8389 262.493 44.9241 262.361 45.0633C262.229 45.2025 262.154 45.3858 262.15 45.5775C262.146 45.7692 262.213 45.9556 262.338 46.1004L262.485 46.23L257.34 50.3184L253.71 51.1513C253.564 51.1848 253.431 51.2577 253.324 51.3621L245.479 59.6539C245.271 59.8716 245.107 60.1285 244.999 60.4098C244.89 60.6911 244.838 60.9912 244.847 61.2926C244.855 61.594 244.923 61.8909 245.046 62.1658C245.17 62.4408 245.347 62.6885 245.567 62.8946L249.611 66.7243C249.828 66.933 250.085 67.0964 250.367 67.205C250.648 67.3137 250.948 67.3654 251.249 67.3572C251.551 67.349 251.848 67.2811 252.123 67.1574C252.398 67.0337 252.645 66.8566 252.851 66.6365L260.706 58.3539C260.804 58.2418 260.87 58.1047 260.895 57.9577L261.53 54.2873L265.334 48.9284L265.471 49.0678C265.621 49.2047 265.818 49.2782 266.02 49.2727C266.223 49.2672 266.416 49.1832 266.558 49.0383C266.697 48.8899 266.772 48.6924 266.767 48.489C266.761 48.2855 266.675 48.0924 266.528 47.9517ZM250.658 65.6181L246.615 61.7883C246.541 61.7193 246.482 61.6363 246.44 61.5441C246.399 61.4519 246.376 61.3523 246.373 61.2512C246.37 61.1501 246.388 61.0494 246.424 60.9551C246.461 60.8608 246.516 60.7747 246.586 60.7018L247.235 60.0165L252.394 64.9033L251.745 65.5886C251.604 65.7357 251.411 65.8213 251.208 65.8269C251.004 65.8324 250.807 65.7573 250.658 65.6181ZM260.184 53.5511C260.121 53.644 260.079 53.7492 260.059 53.8598L259.432 57.4728L258.635 58.3147L253.476 53.4278L254.273 52.5859L257.847 51.7641C257.956 51.7387 258.059 51.6904 258.148 51.6224L263.601 47.2966L264.208 47.8716L260.184 53.5511Z" fill="white"/>
</g>
<g opacity="0.3" clip-path="url(#clip10_6_2394)">
<path d="M159.692 23.8258C159.157 23.6823 158.73 23.2586 158.581 22.7237L157.459 18.7588L154.509 21.6324C154.108 22.0236 153.527 22.1772 152.991 22.0337C152.849 21.9955 152.711 21.938 152.586 21.8598L148.581 19.4391L147.051 25.1479C146.925 25.6193 147.132 26.1148 147.552 26.3476L153.939 29.9188C154.241 30.0856 154.58 30.1764 154.922 30.182L162.245 30.2847C162.726 30.2899 163.153 29.9643 163.279 29.496L164.808 23.7873L160.13 23.8778C159.983 23.883 159.835 23.864 159.692 23.8258ZM167.395 22.0328L166.646 18.2985C166.601 18.0733 166.42 17.901 166.193 17.8712L157.992 16.7703L159.592 22.4272C159.658 22.6615 159.873 22.8223 160.115 22.8185L166.873 22.6871C167.212 22.6781 167.458 22.3661 167.395 22.0328ZM149.734 13.7669L147.218 16.6265C146.993 16.8825 147.054 17.2769 147.341 17.4499L153.127 20.9427C153.335 21.0671 153.602 21.0354 153.776 20.8656L157.992 16.7703L150.336 13.6224C150.125 13.5382 149.885 13.5944 149.734 13.7669Z" fill="white"/>
</g>
<g opacity="0.3" clip-path="url(#clip11_6_2394)">
<path d="M97.548 57.0397C96.7886 57.3975 95.8836 57.3296 95.1923 56.8646L90.0464 53.4358L89.4183 59.5849C89.3343 60.4206 88.8103 61.1616 88.051 61.5194C87.8487 61.6146 87.6338 61.6829 87.4131 61.7155L80.4273 62.8543L84.1954 70.8526C84.5066 71.5132 85.2269 71.8766 85.939 71.7333L96.7991 69.5875C97.3104 69.4839 97.7912 69.2574 98.1921 68.9312L106.771 61.9193C107.332 61.4569 107.511 60.67 107.202 60.014L103.434 52.0157L98.1054 56.6728C97.9397 56.8222 97.7502 56.9444 97.548 57.0397ZM104.726 47.4975L100.236 43.9684C99.965 43.7555 99.5877 43.7355 99.2967 43.9221L88.7339 50.6499L96.0742 55.5432C96.3784 55.7458 96.7834 55.7198 97.0601 55.4796L104.757 48.7514C105.14 48.4115 105.123 47.8156 104.726 47.4975ZM76.2585 55.2643L76.1206 60.9738C76.1087 61.4846 76.5617 61.8751 77.0613 61.7935L87.1499 60.1429C87.5113 60.0825 87.7893 59.7868 87.8267 59.4232L88.7339 50.6499L76.816 54.513C76.489 54.6231 76.2666 54.9201 76.2585 55.2643Z" fill="white"/>
</g>
<g opacity="0.3" clip-path="url(#clip12_6_2394)">
<path d="M243.109 33.3279C242.55 33.3957 241.988 33.1618 241.645 32.72L239.091 29.4519L237.395 33.2356C237.165 33.7501 236.675 34.1116 236.116 34.1794C235.967 34.1975 235.816 34.1957 235.669 34.17L230.98 33.423L231.694 39.3109C231.753 39.7972 232.135 40.1804 232.619 40.2392L239.987 41.1612C240.335 41.203 240.689 41.1601 241.013 41.0369L247.954 38.379C248.409 38.203 248.689 37.7394 248.63 37.2565L247.916 31.3686L243.541 33.2117C243.404 33.2719 243.258 33.3098 243.109 33.3279ZM249.691 28.7635L247.575 25.5697C247.447 25.377 247.211 25.2848 246.987 25.3423L238.842 27.401L242.485 32.0642C242.636 32.2574 242.9 32.3261 243.127 32.2315L249.446 29.5685C249.762 29.4328 249.877 29.0497 249.691 28.7635ZM229.924 27.7108L228.633 31.3178C228.518 31.6406 228.724 31.9848 229.06 32.0381L235.833 33.1129C236.075 33.1506 236.315 33.0209 236.415 32.7972L238.842 27.401L230.438 27.3498C230.206 27.351 230.002 27.4933 229.924 27.7108Z" fill="white"/>
</g>
<g opacity="0.3">
<path d="M18.0745 98.2966L24.6799 99.9189C26.001 100.243 26.6654 101.34 26.3409 102.662L25.8001 104.863L-2.8233 97.8331L-2.28252 95.6313C-1.95804 94.3102 -0.640827 93.6999 0.460074 93.9703L7.06548 95.5926C8.10071 93.2788 11.0094 91.892 13.6516 92.541C16.2937 93.1899 18.229 95.7664 18.0745 98.2966ZM9.26729 96.1334L15.8727 97.7558C15.7568 96.3265 14.4319 95.0673 13.1108 94.7428C11.7897 94.4183 10.0321 94.9205 9.26729 96.1334ZM-1.16228 100.576L23.0576 106.524L15.614 128.276C15.3436 129.377 14.0264 129.987 12.9255 129.717L-2.92751 125.823C-4.02841 125.553 -4.69282 124.456 -4.64261 123.301L-1.16228 100.576Z" fill="white"/>
</g>
<g opacity="0.3" clip-path="url(#clip13_6_2394)">
<path d="M28.8729 141.28L33.8928 139.935C34.8967 139.666 35.7454 140.156 36.0144 141.16L36.4628 142.833L14.7099 148.662L14.2616 146.989C13.9926 145.985 14.6499 145.091 15.4865 144.867L20.5064 143.522C20.3479 141.592 21.785 139.592 23.7929 139.054C25.8009 138.516 28.045 139.529 28.8729 141.28ZM22.1797 143.074L27.1996 141.728C26.5959 140.814 25.2453 140.459 24.2413 140.728C23.2373 140.997 22.2453 141.98 22.1797 143.074ZM16.8316 149.887L35.2378 144.955L38.2603 162.259C38.4845 163.095 37.8272 163.989 36.9905 164.213L24.9428 167.441C24.1061 167.665 23.2575 167.175 22.866 166.384L16.8316 149.887Z" fill="white"/>
</g>
<g opacity="0.3">
<path d="M292.427 48.0953L297.362 49.7241C298.349 50.0498 298.79 50.925 298.464 51.912L297.921 53.5571L276.536 46.4991L277.079 44.8541C277.405 43.8671 278.444 43.4805 279.267 43.752L284.202 45.3807C285.128 43.6797 287.426 42.7964 289.4 43.4479C291.374 44.0994 292.695 46.1772 292.427 48.0953ZM285.847 45.9236L290.782 47.5524C290.779 46.4568 289.844 45.4187 288.857 45.093C287.87 44.7672 286.502 45.0452 285.847 45.9236ZM277.638 48.6871L295.733 54.6592L288.769 70.7856C288.498 71.6081 287.458 71.9946 286.636 71.7232L274.791 67.8142C273.969 67.5427 273.528 66.6675 273.635 65.7907L277.638 48.6871Z" fill="white"/>
</g>
<g opacity="0.3" clip-path="url(#clip14_6_2394)">
<path d="M82.7943 86.3354L81.0038 85.6158L81.1223 85.321C82.3656 82.2273 85.9138 80.7406 89.0434 81.9984L90.8339 82.718C93.9636 83.9759 95.496 87.5045 94.2526 90.5981L94.1341 90.8929L92.3436 90.1733L92.4621 89.8785C93.3129 87.7618 92.2642 85.3474 90.123 84.4869L88.3325 83.7672C86.1914 82.9067 83.7635 83.9239 82.9128 86.0406L82.7943 86.3354ZM78.2654 87.2546C78.5276 86.6023 79.2739 86.2902 79.933 86.5551L94.257 92.312C94.9173 92.5774 95.2389 93.3188 94.9768 93.971C94.7146 94.6233 93.9694 94.9359 93.3092 94.6705L93.1189 94.594L89.1287 102.107C88.639 102.959 87.6301 103.346 86.7125 102.977L77.9987 99.4748C77.083 99.1067 76.5885 98.1162 76.8555 97.1748L79.1735 88.9893L78.9851 88.9136C78.326 88.6487 78.0033 87.9069 78.2654 87.2546Z" fill="white"/>
</g>
<g opacity="0.3" clip-path="url(#clip15_6_2394)">
<path d="M112.53 22.5604L109.571 23.3533L109.44 22.8661C108.07 17.7528 111.158 12.4829 116.331 11.0968L119.29 10.3038C124.463 8.91777 129.773 11.9376 131.143 17.0509L131.273 17.5382L128.314 18.3311L128.183 17.8439C127.246 14.3453 123.613 12.2792 120.074 13.2275L117.114 14.0204C113.575 14.9687 111.462 18.5745 112.4 22.0731L112.53 22.5604ZM107.656 28.0445C107.367 26.9664 108.017 25.8587 109.106 25.5667L132.782 19.2229C133.873 18.9305 134.988 19.5653 135.277 20.6434C135.566 21.7215 134.918 22.8287 133.826 23.1211L133.512 23.2054L135.607 36.549C135.797 38.0975 134.885 39.5497 133.368 39.9561L118.965 43.8153C117.452 44.2209 115.88 43.4344 115.322 41.9846L110.462 29.3815L110.151 29.4649C109.062 29.7568 107.945 29.1226 107.656 28.0445Z" fill="white"/>
</g>
<path opacity="0.3" d="M216.863 99.2332L214.916 98.8236L214.983 98.5029C215.691 95.1376 219.028 92.9909 222.432 93.707L224.38 94.1167C227.785 94.8328 229.974 98.1419 229.266 101.507L229.199 101.828L227.251 101.418L227.319 101.098C227.803 98.7949 226.305 96.5308 223.975 96.0408L222.028 95.6312C219.699 95.1413 217.415 96.61 216.931 98.9125L216.863 99.2332ZM212.428 100.979C212.577 100.27 213.279 99.819 213.996 99.9698L229.578 103.247C230.296 103.398 230.756 104.094 230.607 104.803C230.458 105.513 229.757 105.964 229.039 105.813L228.832 105.769L226.127 114.117C225.782 115.07 224.827 115.643 223.829 115.433L214.35 113.439C213.354 113.23 212.674 112.312 212.776 111.308L213.662 102.578L213.457 102.535C212.74 102.385 212.279 101.689 212.428 100.979Z" fill="white"/>
<g opacity="0.3">
<path d="M101.832 104.68L118.247 106.355C118.642 106.395 119.006 106.591 119.257 106.9C119.509 107.208 119.627 107.604 119.587 108L117.302 130.383C117.262 130.779 117.066 131.143 116.758 131.394C116.449 131.645 116.053 131.764 115.658 131.723L94.7662 129.591C94.3705 129.551 94.007 129.355 93.7557 129.046C93.5044 128.738 93.3859 128.342 93.4263 127.947L94.9492 113.024L101.832 104.68ZM109.902 99.4722L117.364 100.234C117.759 100.274 118.123 100.47 118.374 100.778C118.626 101.087 118.744 101.482 118.704 101.878L118.399 104.863L107.953 103.797L108.258 100.812C108.298 100.416 108.494 100.053 108.803 99.8016C109.111 99.5503 109.507 99.4318 109.902 99.4722ZM97.7814 114.821L96.7154 125.267L99.6999 125.571L100.766 115.125L97.7814 114.821Z" fill="white"/>
</g>
<g opacity="0.3" clip-path="url(#clip16_6_2394)">
<path d="M253.568 87.4343L277.587 85.0166C278.166 84.9583 278.745 85.1325 279.196 85.5007C279.646 85.869 279.932 86.4013 279.991 86.9804L283.287 119.734C283.346 120.313 283.172 120.892 282.803 121.343C282.435 121.793 281.903 122.079 281.324 122.138L250.753 125.215C250.174 125.273 249.596 125.099 249.145 124.731C248.694 124.362 248.408 123.83 248.35 123.251L246.152 101.415L253.568 87.4343ZM263.606 77.601L274.524 76.502C275.104 76.4437 275.682 76.6179 276.133 76.9862C276.584 77.3544 276.87 77.8867 276.928 78.4658L277.367 82.833L262.082 84.3716L261.643 80.0044C261.584 79.4252 261.759 78.8467 262.127 78.396C262.495 77.9452 263.027 77.6593 263.606 77.601ZM250.739 103.159L252.278 118.444L256.645 118.005L255.106 102.719L250.739 103.159Z" fill="white"/>
</g>
<g opacity="0.3" clip-path="url(#clip17_6_2394)">
<path d="M83.7199 30.6721L89.5031 25.1421C89.6425 25.0087 89.8292 24.9362 90.0221 24.9406C90.215 24.9449 90.3982 25.0256 90.5316 25.1651L98.0726 33.0513C98.2059 33.1907 98.2784 33.3774 98.2741 33.5703C98.2698 33.7632 98.189 33.9464 98.0496 34.0798L90.6891 41.118C90.5497 41.2514 90.363 41.3238 90.1701 41.3195C89.9772 41.3152 89.794 41.2344 89.6606 41.095L84.6333 35.8375L83.7199 30.6721ZM84.3377 26.0555L86.9664 23.5418C87.1058 23.4085 87.2925 23.336 87.4854 23.3403C87.6783 23.3446 87.8616 23.4254 87.9949 23.5648L89.0004 24.6163L85.3201 28.1354L84.3147 27.084C84.1813 26.9445 84.1088 26.7578 84.1132 26.565C84.1175 26.3721 84.1982 26.1888 84.3377 26.0555ZM86.1875 35.3578L89.7067 39.038L90.7581 38.0326L87.239 34.3524L86.1875 35.3578Z" fill="white"/>
</g>
<g opacity="0.3" clip-path="url(#clip18_6_2394)">
<path d="M170.752 109.922L171.22 112.378L161.396 114.249L160.929 111.794L163.385 111.326L163.151 110.098L155.783 111.501L156.251 113.957L153.795 114.425L151.924 104.602L154.38 104.134L154.847 106.59L164.671 104.718C165.322 104.594 165.996 104.734 166.544 105.107C167.093 105.48 167.47 106.055 167.594 106.706L168.296 110.39L170.752 109.922ZM164.788 118.693L165.49 122.377C165.614 123.028 165.991 123.604 166.54 123.977C167.088 124.349 167.762 124.489 168.413 124.365L178.237 122.494L178.704 124.95L181.16 124.482L179.289 114.659L176.833 115.126L177.301 117.582L169.934 118.986L169.7 117.758L172.155 117.29L171.688 114.834L161.864 116.705L162.332 119.161L164.788 118.693Z" fill="white"/>
</g>
<g opacity="0.3" clip-path="url(#clip19_6_2394)">
<path d="M233.319 64.7091L232.121 67.6259L220.454 62.8342L221.651 59.9174L224.568 61.1153L225.167 59.6569L216.417 56.0631L215.219 58.9799L212.302 57.782L217.094 46.1147L220.011 47.3127L218.813 50.2295L230.48 55.0212C231.253 55.3389 231.869 55.9509 232.192 56.7226C232.514 57.4943 232.516 58.3624 232.199 59.136L230.402 63.5112L233.319 64.7091ZM220.974 69.8657L219.178 74.241C218.86 75.0146 218.862 75.8827 219.185 76.6543C219.507 77.426 220.123 78.038 220.896 78.3557L232.564 83.1474L231.366 86.0642L234.283 87.2622L239.074 75.5949L236.157 74.397L234.96 77.3138L226.209 73.72L226.808 72.2616L229.725 73.4595L230.923 70.5427L219.256 65.751L218.058 68.6678L220.974 69.8657Z" fill="white"/>
</g>
<g opacity="0.3" clip-path="url(#clip20_6_2394)">
<path d="M303.224 93.3977L301.591 92.1527L306.571 85.6226L308.204 86.8677L306.959 88.5002L307.775 89.1227L311.51 84.2251L309.878 82.9801L311.123 81.3476L317.653 86.3276L316.408 87.9602L314.775 86.7151L309.795 93.2452C309.465 93.6782 308.976 93.9623 308.437 94.0349C307.897 94.1076 307.351 93.9629 306.918 93.6327L304.469 91.7652L303.224 93.3977ZM302.061 84.7651L299.613 82.8976C299.18 82.5674 298.633 82.4228 298.094 82.4954C297.554 82.5681 297.065 82.8522 296.735 83.2851L291.755 89.8152L290.123 88.5702L288.877 90.2027L295.408 95.1828L296.653 93.5503L295.02 92.3052L298.755 87.4077L299.571 88.0302L298.326 89.6627L299.959 90.9077L304.939 84.3776L303.306 83.1326L302.061 84.7651Z" fill="white"/>
</g>
<g opacity="0.3" clip-path="url(#clip21_6_2394)">
<path d="M204.326 10.5928L210.635 34.1372L191.618 39.2327C190.898 39.4258 190.13 39.3247 189.484 38.9518C188.838 38.5788 188.367 37.9645 188.174 37.244C187.98 36.5235 188.082 35.7558 188.454 35.1098C188.827 34.4638 189.442 33.9925 190.162 33.7994L207.368 29.1892L201.544 7.45587L183.433 12.3087C181.441 12.8425 180.248 14.9093 180.782 16.9015L186.605 38.6348C187.139 40.6271 189.206 41.8203 191.198 41.2865L212.931 35.4631L206.137 10.1075L204.326 10.5928Z" fill="white"/>
<path d="M190.65 35.6099L190.648 35.6104C190.408 35.6747 190.203 35.8319 190.078 36.0472C189.954 36.2625 189.92 36.5184 189.985 36.7586C190.049 36.9988 190.206 37.2035 190.422 37.3278C190.637 37.4522 190.893 37.4858 191.133 37.4215L208.337 32.8118L207.851 31.0007L190.65 35.6099Z" fill="white"/>
</g>
<g opacity="0.3" clip-path="url(#clip22_6_2394)">
<path d="M176.658 84.7658C175.758 84.9109 174.952 85.4077 174.418 86.1467C173.885 86.8858 173.666 87.8066 173.811 88.7067L175.503 99.1962C175.648 100.096 176.144 100.902 176.883 101.436C177.622 101.969 178.543 102.188 179.443 102.043L197.337 99.1577C198.237 99.0126 199.043 98.5159 199.577 97.7769C200.111 97.0378 200.329 96.117 200.184 95.2169L198.493 84.7274C198.347 83.8273 197.851 83.0218 197.112 82.4879C196.373 81.9541 195.452 81.7357 194.552 81.8809L176.658 84.7658ZM180.2 104.77C180.16 104.524 180.22 104.273 180.365 104.071C180.511 103.87 180.73 103.734 180.976 103.695L196.402 101.208C196.647 101.168 196.898 101.228 197.1 101.373C197.301 101.519 197.437 101.739 197.476 101.984C197.516 102.23 197.456 102.481 197.311 102.682C197.165 102.884 196.946 103.019 196.7 103.059L181.274 105.546C181.029 105.586 180.778 105.526 180.576 105.38C180.375 105.235 180.239 105.015 180.2 104.77Z" fill="white"/>
</g>
<g opacity="0.3" clip-path="url(#clip23_6_2394)">
<path d="M281.88 13.8021L267.76 9.85551C267.007 9.64535 266.201 9.74282 265.52 10.1265C264.839 10.5102 264.337 11.1487 264.126 11.9018L258.82 30.8877C258.381 32.456 259.298 34.0819 260.866 34.5216L274.986 38.4681C275.739 38.6787 276.545 38.5814 277.227 38.1976C277.908 37.8139 278.409 37.1751 278.62 36.4219L283.927 17.4347C284.136 16.6815 284.037 15.8763 283.654 15.1953C283.271 14.5143 282.633 14.0129 281.881 13.8008L281.88 13.8021ZM276.985 31.7605L262.626 27.7471L265.75 16.5683L280.111 20.582L276.985 31.7605ZM268.156 8.89524L282.044 12.7772C282.222 12.8258 282.412 12.8024 282.573 12.712C282.734 12.6216 282.853 12.4714 282.904 12.294L283.931 8.62059C283.979 8.44254 283.956 8.25263 283.865 8.09179C283.775 7.93095 283.625 7.81205 283.448 7.76072L269.559 3.8788C269.381 3.83083 269.191 3.85455 269.031 3.94486C268.87 4.03518 268.751 4.18491 268.699 4.36192L267.672 8.03665C267.568 8.40732 267.785 8.79164 268.156 8.89524L268.158 8.89596L268.156 8.89524Z" fill="white"/>
</g>
<g opacity="0.3" clip-path="url(#clip24_6_2394)">
<path d="M366.962 145.385L353.462 141.523C352.742 141.317 351.969 141.406 351.314 141.769C350.66 142.133 350.176 142.741 349.97 143.461L344.777 161.614C344.348 163.113 345.216 164.676 346.715 165.106L360.215 168.968C360.936 169.174 361.708 169.085 362.363 168.722C363.018 168.358 363.502 167.749 363.708 167.029L368.901 148.876C369.105 148.156 369.016 147.384 368.652 146.729C368.289 146.075 367.681 145.591 366.962 145.384L366.962 145.385ZM362.169 162.555L348.44 158.628L351.498 147.94L365.227 151.868L362.169 162.555ZM353.846 140.605L367.125 144.404C367.295 144.452 367.477 144.43 367.632 144.345C367.786 144.259 367.901 144.116 367.951 143.946L368.956 140.434C369.003 140.264 368.982 140.082 368.896 139.927C368.81 139.773 368.667 139.658 368.498 139.608L355.219 135.809C355.049 135.762 354.867 135.784 354.713 135.869C354.558 135.955 354.443 136.098 354.393 136.267L353.388 139.78C353.286 140.135 353.491 140.504 353.846 140.605L353.848 140.606L353.846 140.605Z" fill="white"/>
</g>
<path opacity="0.3" d="M348.889 99.5018L345.856 100.662L345.665 100.163C343.659 94.9215 346.338 89.026 351.64 86.9972L354.674 85.8364C359.976 83.8076 365.906 86.4096 367.911 91.6511L368.102 92.1506L365.069 93.3113L364.878 92.8118C363.505 89.2255 359.448 87.4453 355.82 88.8334L352.787 89.9941C349.159 91.3821 347.326 95.416 348.698 99.0023L348.889 99.5018ZM344.351 105.819C343.928 104.714 344.492 103.475 345.609 103.047L369.878 93.7616C370.997 93.3336 372.242 93.8806 372.665 94.9857C373.088 96.0908 372.526 97.3295 371.407 97.7575L371.085 97.8808L374.757 111.721C375.128 113.333 374.325 114.965 372.77 115.56L358.006 121.208C356.455 121.802 354.711 121.145 353.963 119.678L347.457 106.921L347.138 107.043C346.021 107.471 344.774 106.924 344.351 105.819Z" fill="white"/>
<circle opacity="0.3" cx="64" cy="73" r="2.5" stroke="white"/>
<circle opacity="0.3" cx="122" cy="55" r="2.5" stroke="white"/>
<circle opacity="0.3" cx="134.5" cy="115.5" r="2" stroke="white"/>
<circle opacity="0.3" cx="320" cy="31" r="2.5" stroke="white"/>
<circle opacity="0.3" cx="11" cy="33" r="3.5" stroke="white"/>
<circle opacity="0.3" cx="2" cy="156" r="3.5" stroke="white"/>
<circle opacity="0.3" cx="207" cy="73" r="2.5" stroke="white"/>
<circle opacity="0.3" cx="224" cy="17" r="2.5" stroke="white"/>
<circle opacity="0.3" cx="296" cy="108" r="2.5" stroke="white"/>
<circle opacity="0.3" cx="340" cy="144" r="2.5" stroke="white"/>
</g>
<defs>
<clipPath id="clip0_6_2394">
<rect width="23.067" height="23.067" fill="white" transform="translate(288 40.1191) rotate(-73.5181)"/>
</clipPath>
<clipPath id="clip1_6_2394">
<rect width="25.221" height="40.3535" fill="white" transform="translate(105 80.2446) rotate(-43.1362)"/>
</clipPath>
<clipPath id="clip2_6_2394">
<rect width="37.2724" height="59.6359" fill="white" transform="translate(309.841 93) rotate(14.4101)"/>
</clipPath>
<clipPath id="clip3_6_2394">
<rect width="27.479" height="43.9664" fill="white" transform="translate(55.9512 14) rotate(29.9518)"/>
</clipPath>
<clipPath id="clip4_6_2394">
<rect width="24.7128" height="24.7128" fill="white" transform="translate(13 15.3564) rotate(-30)"/>
</clipPath>
<clipPath id="clip5_6_2394">
<rect width="39.525" height="39.525" fill="white" transform="translate(150.527 33) rotate(33.0011)"/>
</clipPath>
<clipPath id="clip6_6_2394">
<rect width="36.053" height="36.053" fill="white" transform="translate(301.387 58.0679) rotate(-35.0036)"/>
</clipPath>
<clipPath id="clip7_6_2394">
<rect width="58.916" height="58.916" fill="white" transform="translate(14 117.977) rotate(-75.2596)"/>
</clipPath>
<clipPath id="clip8_6_2394">
<rect width="58.916" height="58.916" fill="white" transform="translate(323.774 63.5537) rotate(-93.9045)"/>
</clipPath>
<clipPath id="clip9_6_2394">
<rect width="24.4095" height="24.4095" fill="white" transform="translate(243 44.5552) rotate(-1.55337)"/>
</clipPath>
<clipPath id="clip10_6_2394">
<rect width="21" height="17" fill="white" transform="translate(148.4 12) rotate(15)"/>
</clipPath>
<clipPath id="clip11_6_2394">
<rect width="31.7896" height="25.4317" fill="white" transform="translate(73 54.5483) rotate(-25.2257)"/>
</clipPath>
<clipPath id="clip12_6_2394">
<rect width="21.3252" height="17.0601" fill="white" transform="translate(228 26.5679) rotate(-6.91651)"/>
</clipPath>
<clipPath id="clip13_6_2394">
<rect width="34.6465" height="34.6465" fill="white" transform="translate(7 139.967) rotate(-15)"/>
</clipPath>
<clipPath id="clip14_6_2394">
<rect width="18.0105" height="20.3345" fill="white" transform="translate(81.583 79) rotate(21.8956)"/>
</clipPath>
<clipPath id="clip15_6_2394">
<rect width="28.5957" height="32.2855" fill="white" transform="translate(104 14.4009) rotate(-15)"/>
</clipPath>
<clipPath id="clip16_6_2394">
<rect width="52.6711" height="52.6711" fill="white" transform="translate(235 78.2749) rotate(-5.74781)"/>
</clipPath>
<clipPath id="clip17_6_2394">
<rect width="17.4583" height="17.4583" fill="white" transform="translate(77 32.0654) rotate(-43.7182)"/>
</clipPath>
<clipPath id="clip18_6_2394">
<rect width="30" height="30" fill="white" transform="translate(149 102.614) rotate(-10.7849)"/>
</clipPath>
<clipPath id="clip19_6_2394">
<rect width="37.8387" height="37.8387" fill="white" transform="translate(215.375 42) rotate(22.3279)"/>
</clipPath>
<clipPath id="clip20_6_2394">
<rect width="24.6371" height="24.6371" fill="white" transform="translate(320.53 85.9399) rotate(127.33)"/>
</clipPath>
<clipPath id="clip21_6_2394">
<rect width="30" height="30" fill="white" transform="translate(178 13.7646) rotate(-15)"/>
</clipPath>
<clipPath id="clip22_6_2394">
<rect width="30" height="30" fill="white" transform="translate(170 80.7749) rotate(-9.15881)"/>
</clipPath>
<clipPath id="clip23_6_2394">
<rect width="19.9073" height="31.8517" fill="white" transform="translate(266.6 3.05176) rotate(15.6159)"/>
</clipPath>
<clipPath id="clip24_6_2394">
<rect width="19.066" height="30.5057" fill="white" transform="translate(352.39 135) rotate(15.9641)"/>
</clipPath>
</defs>
</svg>
