<svg width="50" height="50" viewBox="0 0 26 26" fill="none" xmlns="http://www.w3.org/2000/svg">
  <circle cx="12.5" cy="12.5" r="11.5" fill="white"/>
  <g clip-path="url(#clip0_6_9431)">
    <path d="M15.2711 8.33356C12.2176 6.5706 8.57747 5.73569 7.52942 7.55097C6.48136 9.36625 9.02449 12.1013 12.078 13.8642C15.1322 15.6275 18.7717 16.4621 19.8198 14.6468C20.8678 12.8315 18.3253 10.0969 15.2711 8.33356ZM8.67264 12.6667L7.60827 14.5102C8.26234 15.1328 9.03808 15.7306 9.87439 16.2618L10.9388 14.4183C10.1293 13.9079 9.37049 13.3214 8.67264 12.6667ZM12.1682 15.1273L11.1038 16.9708C11.9502 17.4173 12.8376 17.7812 13.7538 18.0575L14.8182 16.214C13.902 15.9377 13.0145 15.5738 12.1682 15.1273ZM16.2743 16.5303L15.2099 18.3738C16.5845 18.5488 17.7123 18.297 18.2232 17.4121L19.2876 15.5686C18.7767 16.4535 17.6489 16.7053 16.2743 16.5303ZM6.60666 13.4067L7.67103 11.5632C6.83277 10.4606 6.48668 9.35703 6.99723 8.47275L5.93285 10.3163C5.42231 11.2006 5.76839 12.3041 6.60666 13.4067Z" fill="#1DB954"/>
  </g>
  <defs>
    <clipPath id="clip0_6_9431">
      <rect width="19.0263" height="18.1952" fill="white" transform="translate(9.09766) rotate(30)"/>
    </clipPath>
  </defs>
</svg>
